<svg width="145" height="97" xmlns="http://www.w3.org/2000/svg">
 <style type="text/css">.st0{fill:#0074BA;}</style>

 <g>
  <title>background</title>
  <rect fill="none" id="canvas_background" height="99" width="147" y="-1" x="-1"/>
 </g>
 <g>
  <title>Layer 1</title>
  <g id="svg_1">
   <path id="svg_2" d="m84.199997,8.749985c17.299988,0 33.700012,5.399994 49.799988,16.399994l-4.599976,14.600006l-0.800018,2.5l0.800018,2.5l4.599976,14.600006c-16.099976,11 -32.399994,16.399994 -49.699982,16.399994c-10.700012,0 -21.600006,-2.100006 -33.400024,-6.299988l-4.299988,-1.600006l-3.600006,2.899994l-6.100006,4.899994l1.100006,-5.5l1.200012,-5.699982l-4.899994,-3c-10.600006,-6.600006 -18.200012,-14.400024 -22.300018,-19.200012c5.700012,-6.700012 17.800018,-18.899994 35.600006,-25.899994c12.899994,-5.100006 24.899994,-7.600006 36.600006,-7.600006m0,-8.199982c-14.600006,0 -28,3.5 -39.700012,8.200012c-26.899994,10.599976 -41.799988,31.699982 -43.099976,33.599976c1,1.5 10.799988,15.300018 28.399994,26.300018l-5.700012,27.799988l23.899994,-19.100006c10.900024,3.899994 23,6.800018 36.200012,6.800018c18.200012,0 38.299988,-5.5 59.399994,-21.400024l-6.399994,-20.299988l6.399994,-20.299988c-21,-16.100006 -41.100006,-21.600006 -59.399994,-21.600006l0,0z" class="st0"/>
  </g>
 </g>
</svg>