<svg width="145" height="100" xmlns="http://www.w3.org/2000/svg">
 <style type="text/css">.st0{fill:#0074BA;}</style>

 <g>
  <title>background</title>
  <rect fill="none" id="canvas_background" height="102" width="147" y="-1" x="-1"/>
 </g>
 <g>
  <title>Layer 1</title>
  <g id="svg_1">
   <path id="svg_2" d="m84.199994,10.249999c17.3,0 33.7,5.4 49.8,16.4l-4.6,14.6l-0.8,2.5l0.8,2.5l4.6,14.6c-16.1,11 -32.4,16.4 -49.7,16.4c-10.7,0 -21.6,-2.1 -33.4,-6.3l-4.3,-1.6l-3.6,2.9l-6.1,4.9l1.1,-5.5l1.2,-5.7l-4.9,-3c-10.6,-6.6 -18.2,-14.4 -22.3,-19.2c5.7,-6.7 17.8,-18.9 35.6,-25.9c12.9,-5.1 24.9,-7.6 36.6,-7.6m0,-8.2c-14.6,0 -28,3.5 -39.7,8.2c-26.9,10.6 -41.8,31.7 -43.1,33.6c1,1.5 10.8,15.3 28.4,26.3l-5.7,27.8l23.9,-19.1c10.9,3.9 23,6.8 36.2,6.8c18.2,0 38.3,-5.5 59.4,-21.4l-6.4,-20.3l6.4,-20.3c-21,-16.1 -41.1,-21.6 -59.4,-21.6l0,0z" class="st0"/>
  </g>
 </g>
</svg>