<svg width="120" height="100" xmlns="http://www.w3.org/2000/svg">
 <style type="text/css">.st0{fill:#69A742;}</style>

 <g>
  <title>background</title>
  <rect fill="none" id="canvas_background" height="102" width="122" y="-1" x="-1"/>
 </g>
 <g>
  <title>Layer 1</title>
  <g id="svg_1">
   <path id="svg_2" d="m90.700012,65.106384c-2.5,0 -4.700012,0 -7.299988,0c-2.800018,-14.000004 -10.300018,-23.60001 -26,-22.200016c-12.800018,1.200012 -18.700012,10.100006 -20.600006,22.10001c-2.800018,0 -5.300018,0 -7.700012,0c0.800018,-19.10001 15.5,-29.500004 28.5,-30.500004c17.100006,-1.200012 33,11.899994 33.100006,30.60001z" class="st0"/>
   <path id="svg_3" d="m63.5,73.806366c0,6.200012 0.299988,12.5 -0.200012,18.700012c-0.099976,1.899994 -2.199982,3.599976 -3.399994,5.399994c-1.199982,-1.700012 -3.299988,-3.399994 -3.5,-5.200012c-0.399994,-6.299988 -0.199982,-12.600006 -0.199982,-20.199982c-2.300018,2.299988 -3.700012,4.199982 -5.600006,5.299988c-1.399994,0.799988 -3.5,0.399994 -5.300018,0.600006c0.200012,-1.800018 -0.299988,-4.100006 0.600006,-5.200012c3.399994,-4 7.200012,-7.799988 11.200012,-11.199986c1,-0.900024 4,-1 5,-0.200012c4.100006,3.60001 8,7.399998 11.5,11.60001c0.899994,1.100006 0.199982,3.5 0.199982,5.299988c-1.599976,-0.199982 -3.599976,0.100006 -4.899994,-0.600006c-1.799988,-1.099976 -3.100006,-3.099976 -4.600006,-4.699982c0,0.100006 -0.399994,0.300018 -0.799988,0.399994z" class="st0"/>
   <path id="svg_4" d="m117.700012,75.606384c0,3 0,5.200012 0,7.799988c-13.200012,0 -26.299988,0 -39.5,0c1,-6.5 4.600006,-8.5 11.100006,-7.899994c7.799988,0.700012 15.600006,0.200012 23.5,0.200012c1.599976,-0.100006 3.199982,-0.100006 4.899994,-0.100006z" class="st0"/>
   <path id="svg_5" d="m2.299988,83.406372c0,-2.600006 0,-4.899994 0,-7.799988c11.700012,0 23.200012,-0.300018 34.700012,0.299988c1.899994,0.100006 3.5,4.399994 5.899994,7.5c-14.100006,0 -27,0 -40.600006,0z" class="st0"/>
   <path id="svg_6" d="m106.600006,23.306362c-0.899994,1.299988 -1.5,2.600006 -2.399994,3.600006c-3.700012,3.899994 -7.5,7.799988 -11.399994,11.5c-1.800018,1.799988 -4.200012,3.5 -6.600006,0.899994c-2.300018,-2.399994 -1.600006,-4.799988 0.600006,-7.100006c3.799988,-3.699982 7.299988,-7.600006 11.199982,-11c1.399994,-1.199982 4,-1.600006 5.899994,-1.5c1.100006,0.100006 1.899994,2.300018 2.700012,3.600006z" class="st0"/>
   <path id="svg_7" d="m17.899994,19.306362c3.100006,0 17,13.799988 17,17c0,3.299988 -3.200012,5.600006 -5.600006,3.399994c-5.299988,-4.699982 -10.199982,-9.699982 -14.799988,-15c-2.100006,-2.299988 0.299988,-5.499969 3.399994,-5.399994z" class="st0"/>
   <path id="svg_8" d="m56.299988,15.10638c0,-3.200012 -0.299988,-6.5 0.100006,-9.700012c0.199982,-1.299988 2.199982,-3.5 3.100006,-3.299988c1.5,0.200012 3.899994,1.799988 4,3c0.399994,6.399994 0.5,12.899994 0.099976,19.299988c-0.099976,1.400024 -2.599976,2.700012 -4,4.100006c-1.099976,-1.399994 -3,-2.600006 -3.299988,-4.199982c-0.399994,-3.000031 -0.099976,-6.100006 0,-9.200012c0,0 0,0 0,0z" class="st0"/>
  </g>
 </g>
</svg>