<svg width="120" height="100" xmlns="http://www.w3.org/2000/svg">
 <style type="text/css">.st0{fill:#0074BB;}</style>

 <g>
  <title>background</title>
  <rect fill="none" id="canvas_background" height="102" width="122" y="-1" x="-1"/>
 </g>
 <g>
  <title>Layer 1</title>
  <g id="svg_1">
   <path id="svg_2" d="m90.699995,65.106371c-2.5,0 -4.7,0 -7.3,0c-2.8,-14 -10.3,-23.6 -26,-22.2c-12.8,1.2 -18.7,10.1 -20.6,22.1c-2.8,0 -5.3,0 -7.7,0c0.8,-19.1 15.5,-29.5 28.5,-30.5c17.1,-1.2 33,11.9 33.1,30.6z" class="st0"/>
   <path id="svg_3" d="m63.499995,73.806371c0,6.2 0.3,12.5 -0.2,18.7c-0.1,1.9 -2.2,3.6 -3.4,5.4c-1.2,-1.7 -3.3,-3.4 -3.5,-5.2c-0.4,-6.3 -0.2,-12.6 -0.2,-20.2c-2.3,2.3 -3.7,4.2 -5.6,5.3c-1.4,0.8 -3.5,0.4 -5.3,0.6c0.2,-1.8 -0.3,-4.1 0.6,-5.2c3.4,-4 7.2,-7.8 11.2,-11.2c1,-0.9 4,-1 5,-0.2c4.1,3.6 8,7.4 11.5,11.6c0.9,1.1 0.2,3.5 0.2,5.3c-1.6,-0.2 -3.6,0.1 -4.9,-0.6c-1.8,-1.1 -3.1,-3.1 -4.6,-4.7c0,0.1 -0.4,0.3 -0.8,0.4z" class="st0"/>
   <path id="svg_4" d="m117.699995,75.606371c0,3 0,5.2 0,7.8c-13.2,0 -26.3,0 -39.5,0c1,-6.5 4.6,-8.5 11.1,-7.9c7.8,0.7 15.6,0.2 23.5,0.2c1.6,-0.1 3.2,-0.1 4.9,-0.1z" class="st0"/>
   <path id="svg_5" d="m2.299995,83.406371c0,-2.6 0,-4.9 0,-7.8c11.7,0 23.2,-0.3 34.7,0.3c1.9,0.1 3.5,4.4 5.9,7.5c-14.1,0 -27,0 -40.6,0z" class="st0"/>
   <path id="svg_6" d="m106.599995,23.306371c-0.9,1.3 -1.5,2.6 -2.4,3.6c-3.7,3.9 -7.5,7.8 -11.4,11.5c-1.8,1.8 -4.2,3.5 -6.6,0.9c-2.3,-2.4 -1.6,-4.8 0.6,-7.1c3.8,-3.7 7.3,-7.6 11.2,-11c1.4,-1.2 4,-1.6 5.9,-1.5c1.1,0.1 1.9,2.3 2.7,3.6z" class="st0"/>
   <path id="svg_7" d="m17.899995,19.306371c3.1,0 17,13.8 17,17c0,3.3 -3.2,5.6 -5.6,3.4c-5.3,-4.7 -10.2,-9.7 -14.8,-15c-2.1,-2.3 0.3,-5.5 3.4,-5.4z" class="st0"/>
   <path id="svg_8" d="m56.299995,15.106371c0,-3.2 -0.3,-6.5 0.1,-9.7c0.2,-1.3 2.2,-3.5 3.1,-3.3c1.5,0.2 3.9,1.8 4,3c0.4,6.4 0.5,12.9 0.1,19.3c-0.1,1.4 -2.6,2.7 -4,4.1c-1.1,-1.4 -3,-2.6 -3.3,-4.2c-0.4,-3 -0.1,-6.1 0,-9.2l0,0z" class="st0"/>
  </g>
 </g>
</svg>