<svg width="900" height="900" xmlns="http://www.w3.org/2000/svg">
 <style type="text/css">.st0{fill:#E9B817;}
	.st1{fill:#FFFFFF;}</style>

 <g>
  <title>background</title>
  <rect fill="none" id="canvas_background" height="902" width="902" y="-1" x="-1"/>
 </g>
 <g>
  <title>Layer 1</title>
  <g id="svg_1">
   <circle id="svg_2" r="442.903198" cy="449.999994" cx="449.999986" class="st0"/>
   <g id="svg_3">
    <path id="svg_4" d="m623.610229,248.770096c7.891235,10.850723 14.796387,18.741959 22.6875,28.606155c-19.728394,18.741974 -41.429443,37.484192 -57.212158,53.266693c12.823242,34.52475 22.6875,63.131226 33.538086,90.750916c1.973022,4.932098 10.85083,9.864197 15.782959,9.864197c23.674072,0.986481 47.348022,0 72.995117,0c0,11.837158 0,21.701355 0,34.524719c-24.660522,0 -49.321045,-0.986481 -73.981689,0.986481c-5.918579,0 -14.796387,6.904785 -16.769043,11.836884c-10.850586,26.633514 -20.714844,54.253235 -31.56543,84.832336c16.769165,14.796265 38.470215,34.524658 62.144287,56.226074c-11.836792,10.850708 -20.7146,18.742065 -31.565308,28.606201c-20.714844,-21.701416 -40.443237,-43.402466 -56.226074,-60.171753c-30.579102,11.837158 -58.198853,20.714966 -84.832336,31.565552c-5.918274,1.972656 -12.823364,10.850708 -12.823364,15.782837c-0.986481,23.674072 -0.986481,48.334595 -0.986481,74.967896c-10.850708,0.98645 -20.714905,0.98645 -33.538269,1.9729c0,-30.579102 0,-59.185303 0,-84.832275c-34.524719,-13.809814 -65.103851,-26.633301 -98.64212,-41.429565c-16.769287,17.755493 -35.5112,38.470337 -57.212311,62.144409c-7.891571,-11.837158 -13.81015,-20.714844 -21.701416,-32.551758c16.769318,-15.782837 38.470398,-34.52478 56.226166,-50.307495c-14.796326,-36.497803 -27.619995,-67.076935 -41.42984,-100.615204c-24.660522,0 -53.266663,0 -82.859314,0c0,-11.836884 0,-21.70108 0,-34.524719c24.660538,0 48.334595,0.986481 72.008636,-0.986511c5.918579,0 15.782806,-5.918243 17.755768,-10.850372c10.850403,-27.619995 20.7146,-55.239655 33.538269,-88.777924c-16.769287,-14.796326 -38.470367,-33.538544 -62.14473,-55.239624c10.850693,-9.864258 17.755722,-16.769287 27.62001,-26.633514c19.728394,21.701385 39.456818,43.402466 54.253113,60.171753c34.52478,-12.823364 63.13092,-22.687561 91.737091,-33.538239c4.932098,-1.972961 8.877716,-10.850708 9.864197,-16.769287c0.986481,-23.674072 0,-47.348129 0,-72.995148c11.837189,0 21.701385,0 35.51123,0c0,24.660538 -0.986481,48.334595 0.986481,72.008636c0,6.90509 6.904785,15.782837 12.823364,17.755798c26.633514,11.836884 54.253204,20.714874 84.832428,32.551758c17.755371,-12.823364 37.483765,-34.524719 59.185181,-58.198807zm-174.596741,341.301926c77.927307,0.98645 140.072083,-60.171875 141.058044,-138.099091c0.986572,-78.913666 -60.171387,-142.044586 -139.085052,-142.044586c-77.927551,-0.986481 -140.07193,60.171753 -141.058411,138.098999c-0.986206,78.913452 60.171722,142.044678 139.085419,142.044678z" class="st1"/>
    <path id="svg_5" d="m667.999146,556.533447c3.945679,-11.83728 7.891235,-19.728394 11.837158,-31.565674c19.728516,7.891602 37.483887,14.796387 58.198853,22.687866c-3.945557,9.864258 -7.891602,19.728394 -11.837158,31.565308c-19.728394,-6.904785 -37.483887,-14.795898 -58.198853,-22.6875z" class="st1"/>
    <path id="svg_6" d="m161.964828,351.357849c4.932098,-10.850708 7.891266,-19.728424 12.823364,-31.565582c18.742249,7.89151 37.484192,14.796326 57.212616,22.687866c-3.945618,10.850677 -6.90506,19.728424 -11.837173,31.565308c-18.741943,-6.904785 -37.483887,-13.809814 -58.198807,-22.687592z" class="st1"/>
    <path id="svg_7" d="m548.64209,161.964844c10.85083,4.932098 19.728394,7.891251 31.565674,12.823364c-7.891602,18.742233 -14.796265,37.484177 -22.687866,57.212616c-10.850708,-3.945633 -19.728394,-6.905075 -31.565308,-11.837173c6.904785,-18.741943 14.796387,-37.483887 22.6875,-58.198807z" class="st1"/>
    <path id="svg_8" d="m319.792267,725.211548c8.877716,-20.714966 15.782806,-38.470337 23.674042,-57.212402c10.850677,3.945679 19.728394,7.891235 31.565582,11.836914c-7.891541,19.728394 -15.782776,38.470337 -23.674072,58.198853c-10.850677,-4.931885 -19.728394,-7.891235 -31.565552,-12.823364z" class="st1"/>
    <path id="svg_9" d="m528.913696,678.849854c10.850708,-4.932129 19.728394,-7.891235 30.579224,-12.823242c7.891113,18.741943 15.782715,36.497314 24.660522,57.212158c-9.864258,4.932129 -19.728394,8.877808 -30.579224,13.809937c-8.877808,-20.714966 -16.769165,-38.470459 -24.660522,-58.198853z" class="st1"/>
    <path id="svg_10" d="m316.833099,176.761169c10.850677,-4.932114 19.728424,-8.877747 30.579132,-13.809845c7.891235,19.728439 15.782806,37.483902 24.660553,58.198792c-10.850739,4.932114 -20.714966,8.877731 -30.579163,12.823364c-8.877716,-18.741638 -16.769257,-36.497406 -24.660522,-57.212311z" class="st1"/>
    <path id="svg_11" d="m177.74765,584.153442c-4.932129,-9.864258 -8.877747,-18.741943 -13.809845,-30.579224c18.741943,-7.891235 37.483887,-15.782715 57.212311,-24.660522c4.932114,10.85083 8.877731,19.728394 13.80983,30.579224c-19.728104,7.891113 -38.470367,15.782715 -57.212296,24.660522z" class="st1"/>
    <path id="svg_12" d="m678.849854,372.072784c-4.932129,-11.837158 -8.877808,-20.714935 -12.823242,-31.565643c18.741821,-7.891235 36.497314,-15.782471 57.212158,-23.674042c4.932129,9.864197 8.877808,18.741974 13.809937,30.579163c-19.728516,7.891235 -37.484253,15.782776 -58.198853,24.660522z" class="st1"/>
   </g>
  </g>
 </g>
</svg>