<svg width="90" height="90" xmlns="http://www.w3.org/2000/svg">
 <style type="text/css">.st0{fill:#0074BA;}
	.st1{fill:#FFFFFF;}</style>

 <g>
  <title>background</title>
  <rect fill="none" id="canvas_background" height="92" width="92" y="-1" x="-1"/>
 </g>
 <g>
  <title>Layer 1</title>
  <g id="svg_1">
   <circle id="svg_2" r="44.900002" cy="45" cx="45" class="st0"/>
   <g id="svg_3">
    <path id="svg_4" d="m62.6,24.6c0.8,1.1 1.5,1.9 2.3,2.9c-2,1.9 -4.2,3.8 -5.8,5.4c1.3,3.5 2.3,6.4 3.4,9.2c0.2,0.5 1.1,1 1.6,1c2.4,0.1 4.8,0 7.4,0c0,1.2 0,2.2 0,3.5c-2.5,0 -5,-0.1 -7.5,0.1c-0.6,0 -1.5,0.7 -1.7,1.2c-1.1,2.7 -2.1,5.5 -3.2,8.6c1.7,1.5 3.9,3.5 6.3,5.7c-1.2,1.1 -2.1,1.9 -3.2,2.9c-2.1,-2.2 -4.1,-4.4 -5.7,-6.1c-3.1,1.2 -5.9,2.1 -8.6,3.2c-0.6,0.2 -1.3,1.1 -1.3,1.6c-0.1,2.4 -0.1,4.9 -0.1,7.6c-1.1,0.1 -2.1,0.1 -3.4,0.2c0,-3.1 0,-6 0,-8.6c-3.5,-1.4 -6.6,-2.7 -10,-4.2c-1.7,1.8 -3.6,3.9 -5.8,6.3c-0.8,-1.2 -1.4,-2.1 -2.2,-3.3c1.7,-1.6 3.9,-3.5 5.7,-5.1c-1.5,-3.7 -2.8,-6.8 -4.2,-10.2c-2.5,0 -5.4,0 -8.4,0c0,-1.2 0,-2.2 0,-3.5c2.5,0 4.9,0.1 7.3,-0.1c0.6,0 1.6,-0.6 1.8,-1.1c1.1,-2.8 2.1,-5.6 3.4,-9c-1.7,-1.5 -3.9,-3.4 -6.3,-5.6c1.1,-1 1.8,-1.7 2.8,-2.7c2,2.2 4,4.4 5.5,6.1c3.5,-1.3 6.4,-2.3 9.3,-3.4c0.5,-0.2 0.9,-1.1 1,-1.7c0.1,-2.4 0,-4.8 0,-7.4c1.2,0 2.2,0 3.6,0c0,2.5 -0.1,4.9 0.1,7.3c0,0.7 0.7,1.6 1.3,1.8c2.7,1.2 5.5,2.1 8.6,3.3c1.8,-1.3 3.8,-3.5 6,-5.9zm-17.7,34.6c7.9,0.1 14.2,-6.1 14.3,-14c0.1,-8 -6.1,-14.4 -14.1,-14.4c-7.9,-0.1 -14.2,6.1 -14.3,14c-0.1,8 6.1,14.4 14.1,14.4z" class="st1"/>
    <path id="svg_5" d="m67.1,55.8c0.4,-1.2 0.8,-2 1.2,-3.2c2,0.8 3.8,1.5 5.9,2.3c-0.4,1 -0.8,2 -1.2,3.2c-2,-0.7 -3.8,-1.5 -5.9,-2.3z" class="st1"/>
    <path id="svg_6" d="m15.8,35c0.5,-1.1 0.8,-2 1.3,-3.2c1.9,0.8 3.8,1.5 5.8,2.3c-0.4,1.1 -0.7,2 -1.2,3.2c-1.9,-0.7 -3.8,-1.4 -5.9,-2.3z" class="st1"/>
    <path id="svg_7" d="m55,15.8c1.1,0.5 2,0.8 3.2,1.3c-0.8,1.9 -1.5,3.8 -2.3,5.8c-1.1,-0.4 -2,-0.7 -3.2,-1.2c0.7,-1.9 1.5,-3.8 2.3,-5.9z" class="st1"/>
    <path id="svg_8" d="m31.8,72.9c0.9,-2.1 1.6,-3.9 2.4,-5.8c1.1,0.4 2,0.8 3.2,1.2c-0.8,2 -1.6,3.9 -2.4,5.9c-1.1,-0.5 -2,-0.8 -3.2,-1.3z" class="st1"/>
    <path id="svg_9" d="m53,68.2c1.1,-0.5 2,-0.8 3.1,-1.3c0.8,1.9 1.6,3.7 2.5,5.8c-1,0.5 -2,0.9 -3.1,1.4c-0.9,-2.1 -1.7,-3.9 -2.5,-5.9z" class="st1"/>
    <path id="svg_10" d="m31.5,17.3c1.1,-0.5 2,-0.9 3.1,-1.4c0.8,2 1.6,3.8 2.5,5.9c-1.1,0.5 -2.1,0.9 -3.1,1.3c-0.9,-1.9 -1.7,-3.7 -2.5,-5.8z" class="st1"/>
    <path id="svg_11" d="m17.4,58.6c-0.5,-1 -0.9,-1.9 -1.4,-3.1c1.9,-0.8 3.8,-1.6 5.8,-2.5c0.5,1.1 0.9,2 1.4,3.1c-2,0.8 -3.9,1.6 -5.8,2.5z" class="st1"/>
    <path id="svg_12" d="m68.2,37.1c-0.5,-1.2 -0.9,-2.1 -1.3,-3.2c1.9,-0.8 3.7,-1.6 5.8,-2.4c0.5,1 0.9,1.9 1.4,3.1c-2,0.8 -3.8,1.6 -5.9,2.5z" class="st1"/>
   </g>
  </g>
 </g>
</svg>