<svg width="90" height="110" xmlns="http://www.w3.org/2000/svg">
 <style type="text/css">.st0{fill:#0074BA;}</style>

 <g>
  <title>background</title>
  <rect fill="none" id="canvas_background" height="112" width="92" y="-1" x="-1"/>
 </g>
 <g>
  <title>Layer 1</title>
  <g id="svg_1">
   <path id="svg_2" d="m44.299988,17.399994c3.299988,4.299988 6.799988,8.600006 10.399994,12.799988c10.800018,12.899994 21.899994,26.300018 21.899994,37.5c0,17.399994 -14.199982,31.600006 -31.599976,31.600006s-31.600006,-14.200012 -31.600006,-31.600006c0,-13.899994 11.699982,-27.600006 25.100006,-43.5c2,-2.299988 3.899994,-4.499969 5.799988,-6.799988m0.700012,-16.399994c-19.5,25.200012 -41.299988,43.899994 -41.299988,66.700012c0,22.799988 18.5,41.299988 41.299988,41.299988s41.299988,-18.5 41.299988,-41.299988c0,-22.800018 -29.699982,-45.800018 -41.299988,-66.700012l0,0z" class="st0"/>
  </g>
 </g>
</svg>