<svg width="90" height="90" xmlns="http://www.w3.org/2000/svg">
 <style type="text/css">.st0{fill:#006FB6;}
	.st1{fill:#FFFFFF;}</style>

 <g>
  <title>background</title>
  <rect fill="none" id="canvas_background" height="92" width="92" y="-1" x="-1"/>
 </g>
 <g>
  <title>Layer 1</title>
  <g id="svg_1">
   <circle id="svg_2" r="44.900002" cy="45" cx="45" class="st0"/>
   <path id="svg_3" d="m86.8,48.9c-2.7,-1.4 -5.8,-3.1 -10,-1.2c-4.5,2 -8.6,2.3 -11.3,0.9c-1.4,-0.8 -2.4,-2 -2.7,-3.5c-0.3,-1.5 0,-2.7 0.8,-3.6c2.3,-2.6 8.2,-2.8 10.3,-2.6c0.4,0 0.9,-0.2 1,-0.6c0.2,-0.4 0.1,-0.9 -0.2,-1.2c-4,-4.4 -8.3,-6.5 -12.9,-6.3c-8.4,0.4 -14.4,8.4 -14.6,8.7l-0.5,0.6c-1.5,1.8 -3.9,4.7 -6.7,7.6c-1.5,1.5 -3.3,2.2 -5.2,2c-1.9,-0.2 -3.7,-1.4 -4.7,-3.1c-0.7,-1.2 -0.9,-2.5 -0.5,-3.8c0.5,-1.7 1.9,-3.3 3.6,-4.2c3,-1.6 6.8,-0.9 6.9,-0.9c0.4,0.1 0.9,-0.1 1.1,-0.5s0.2,-0.9 -0.1,-1.2c-3.2,-3.9 -6.8,-5.9 -10.9,-5.8c-8.8,0.3 -16.9,10 -21,15.7c-3.8,5.4 -7.9,4.1 -8.8,3.7c0.1,0.8 0.2,1.6 0.3,2.3c2.2,0.5 6.5,0.6 10.3,-4.8c3.1,-4.4 11.2,-14.6 19.3,-14.8c2.7,-0.1 5.2,0.9 7.4,3.1c-1.6,0.1 -3.6,0.3 -5.5,1.3c-2.3,1.2 -4.1,3.3 -4.7,5.6c-0.5,1.9 -0.3,3.8 0.8,5.5c1.4,2.3 3.8,3.8 6.3,4.1c2.6,0.3 5,-0.7 7,-2.7c2.8,-2.9 5.4,-5.9 6.8,-7.7l0.6,-0.7c0.1,-0.1 5.7,-7.5 13,-7.9c3.3,-0.2 6.4,1.1 9.4,3.8c-2.8,0.2 -7.1,0.8 -9.4,3.4c-1.3,1.5 -1.7,3.3 -1.3,5.5c0.4,2.2 1.8,4 3.8,5c3.3,1.7 7.9,1.4 13.1,-0.9c3.3,-1.5 5.6,-0.2 8.1,1.1c1.1,0.6 2.3,1.2 3.6,1.6c0.1,-0.7 0.2,-1.4 0.3,-2.2c-0.9,-0.3 -1.9,-0.8 -2.8,-1.3z" class="st1"/>
  </g>
 </g>
</svg>