<svg width="900" height="900" xmlns="http://www.w3.org/2000/svg">
 <style type="text/css">.st0{fill:#59287F;}
	.st1{fill:#FFFFFF;}</style>

 <g>
  <title>background</title>
  <rect fill="none" id="canvas_background" height="902" width="902" y="-1" x="-1"/>
 </g>
 <g>
  <title>Layer 1</title>
  <g id="svg_1">
   <circle id="svg_2" r="442.900024" cy="449.999996" cx="449.999996" class="st0"/>
   <path id="svg_3" d="m862.321045,488.470093c-26.633301,-13.809753 -57.211914,-30.578918 -98.641479,-11.837097c-44.388672,19.728302 -84.831665,22.687714 -111.464722,8.877991c-13.809937,-7.89151 -23.674194,-19.728302 -26.633179,-34.524536c-2.959106,-14.796173 0,-26.63327 7.891113,-35.510956c22.687744,-25.64682 80.886108,-27.619751 101.60083,-25.64682c3.945679,0 8.877686,-1.972931 9.864136,-5.918579c1.972656,-3.945557 0.98645,-8.877655 -1.9729,-11.836761c-39.456543,-43.402466 -81.872314,-64.116913 -127.247437,-62.144257c-82.858643,3.945587 -142.043518,82.858734 -144.016479,85.818146l-4.932098,5.918518c-14.796204,17.755341 -38.470093,46.361298 -66.089569,74.967255c-14.796173,14.796204 -32.551819,21.701233 -51.29361,19.728302c-18.741821,-1.972656 -36.497467,-13.809753 -46.361633,-30.578613c-6.904663,-11.837097 -8.877655,-24.660309 -4.932007,-37.483917c4.932007,-16.76886 18.742096,-32.551544 35.510925,-41.429199c29.592438,-15.782715 67.076324,-8.877991 68.062531,-8.877991c3.945892,0.986511 8.87796,-0.986176 10.850616,-4.932037s1.972931,-8.877686 -0.986481,-11.836823c-31.565063,-38.470062 -67.07605,-58.198395 -107.519073,-57.212189c-86.804337,2.959412 -166.703949,98.641388 -207.14698,154.867126c-37.483612,53.266266 -77.926651,40.443054 -86.804319,36.497437c0.986477,7.891235 1.972647,15.782349 2.959122,22.687408c21.701231,4.932129 64.116926,5.918579 101.600843,-47.347748c30.57859,-43.402466 110.478188,-144.016541 190.377815,-145.989441c26.633301,-0.986481 51.29364,8.877625 72.994568,30.578888c-15.782684,0.98645 -35.510956,2.959076 -54.252747,12.823242c-22.687439,11.837097 -40.443054,32.551849 -46.361298,55.239288c-4.932068,18.741791 -2.959412,37.483887 7.891174,54.252747c13.809753,22.687683 37.483643,37.483917 62.144012,40.443024c25.64682,2.959106 49.320679,-6.90506 69.04892,-26.633301c27.619812,-28.605927 53.266632,-58.198364 67.076355,-75.953705l5.918579,-6.905029c0.986145,-0.986481 56.225433,-73.981079 128.233856,-77.926636c32.551514,-1.972961 63.130371,10.850647 92.722778,37.483612c-27.619751,1.972931 -70.0354,7.891479 -92.722778,33.5383c-12.823608,14.796265 -16.769165,32.551544 -12.823608,54.252808c3.945557,21.700928 17.755737,39.456543 37.483887,49.320679c32.551636,16.768951 77.926758,13.809723 129.220093,-8.87793c32.55188,-14.796204 55.239136,-1.972656 79.899536,10.850586c10.850708,5.918488 22.687744,11.837067 35.510986,15.782745c0.98645,-6.905029 1.973022,-13.809723 2.959229,-21.701263c-8.877441,-2.959137 -18.741577,-7.891205 -27.619507,-12.823273z" class="st1"/>
  </g>
 </g>
</svg>