<svg width="221" height="25" xmlns="http://www.w3.org/2000/svg">
 <style type="text/css">.st0{fill:#FFFFFF;}</style>

 <g>
  <title>background</title>
  <rect fill="none" id="canvas_background" height="27" width="223" y="-1" x="-1"/>
 </g>
 <g>
  <title>Layer 1</title>
  <g id="svg_1">
   <path id="svg_2" d="m82.199979,22.799932c-5.6,0 -8.6,0 -14.2,0c-0.7,0 -1.3,-0.1 -1.8,-0.2c-0.6,-0.2 -0.8,-0.7 -0.8,-1.1c0,-0.5 0.3,-1 0.8,-1.1c0.5,-0.2 1.1,-0.2 1.6,-0.2c3.2,0 6.4,0 9.6,0l10.3,0c3,0 3.4,0 6.4,0l0.3,0c0.7,0 1.3,0 2,-0.1c1.7,-0.3 2.8,-1.6 2.8,-3.2c0,-1.6 -1.2,-2.9 -2.9,-3.2c-0.9,-0.1 -1.8,-0.1 -2.7,-0.1c0,0 -2.5,0 -3.6,0l-7.7,0c-4.2,0 -4.3,0 -9.3,0c-1.7,0 -3.1,-0.2 -4.4,-0.6c-2.5,-0.8 -4,-2.8 -4,-5.5c0,-2.6 1.5,-4.5 4,-5.3c1.1,-0.3 2.2,-0.5 3.3,-0.5c6.6,0 8.4,0 13.4,0c2.4,0 9.7,0 12.1,0c0.1,0 0.4,0 0.4,0c0.1,0 0.2,0 0.3,0c0.4,0 1.4,0.2 1.4,1.3c0,1 -0.9,1.2 -1.3,1.3c-0.4,0 -0.7,0 -1.1,0l-0.7,0l-6.7,0c-7.1,0 -9.4,0 -16.5,0c-1.2,0 -2.2,0.1 -3.1,0.2c-1.7,0.3 -2.8,1.5 -2.9,3.1c0,1.6 1.1,2.9 2.7,3.3c0.7,0.1 1.4,0.2 2,0.2l0.5,0c2.4,0 4.8,0 7.2,0l2.2,0c5.3,0 6.2,0 11.9,0c1.4,0 2.5,0.1 3.6,0.4c2.7,0.6 4.6,3 4.5,5.8c-0.1,2.7 -2,4.9 -4.7,5.4c-1.1,0.2 -2.2,0.3 -3.2,0.3c-5.1,-0.2 -5.7,-0.2 -11.7,-0.2z" class="st0"/>
   <path id="svg_3" d="m183.799979,22.799932c-0.7,0 -1.2,-0.5 -1.2,-1.3c0,-0.6 0,-1.2 0,-1.8c0,-3.6 -0.1,-7.3 0.1,-10.9c0.1,-3.4 2.8,-6.1 6.7,-6.9c1.2,-0.2 2.5,-0.4 3.8,-0.4c4.7,0 2.4,0 9,0c2.7,0 14.9,0 14.9,0c0.1,0 0.3,0 0.4,0c0.1,0 0.3,0 0.4,0c0.2,0 0.4,0 0.6,0c0.7,0.1 1.1,0.5 1.1,1.3c0,0.7 -0.2,1.1 -1.2,1.2c-0.4,0.1 -0.9,0.1 -1.3,0.1l-12,0c-6.1,0 -4.9,0 -11.1,0c-1.5,0 -2.7,0.1 -3.8,0.2c-3,0.4 -4.7,2.2 -5.1,5.3l0,1.2l13.2,0c7.4,0 1.2,0 8.6,0c0.1,0 0.3,0 0.4,0c0.1,0 0.2,0 0.4,0c0.2,0 0.5,0 0.8,0c0.7,0.1 1.1,0.5 1.1,1.2c0,0.8 -0.3,1.2 -1.1,1.3c-0.5,0.1 -1,0.1 -1.6,0.1l-0.3,0c-7.1,0 -0.7,0 -7.9,0l-13.6,0c0,0 -0.1,2.3 -0.1,2.7c0,0.7 0,1.4 0,2c0,1 0,2.1 0,3.1c0,1 -0.5,1.6 -1.2,1.6l0,0z" class="st0"/>
   <path id="svg_4" d="m178.599979,20.199932c-0.1,-0.1 -0.2,-0.2 -0.2,-0.4c-0.8,-1.3 -1.6,-2.5 -2.4,-3.8l-0.9,-1.4l-0.8,-1.2c0,0 1,-0.2 2.2,-1c2.1,-1.4 3,-3.3 2.6,-6c-0.4,-2.3 -1.8,-3.7 -4.4,-4.4c-0.9,-0.2 -2,-0.4 -3.4,-0.4c-4.2,0 -6.7,0 -9.5,0l0,0c-2,0 -5.8,0 -8.9,0c-0.5,0 -0.9,0 -1.4,0c-0.7,0 -1.4,0 -2.1,0c-0.6,0 -1.1,0 -1.5,0l0,0c-0.1,0 -0.2,0 -0.2,0c-0.1,0 -0.3,0 -0.4,0c-0.1,0 -0.3,0 -0.4,0c-0.2,0 -0.4,0 -0.6,0c-0.7,0.1 -1.1,0.5 -1.1,1.3c0,0.7 0.2,1.1 1.2,1.2c0.4,0.1 0.9,0.1 1.3,0.1l0.2,0l0,0c1.3,0 5.9,0 10.1,0c5.4,0 7.9,0 13.3,0c0.9,0 1.7,0.1 2.5,0.2c1.7,0.3 2.8,1.5 2.9,3.1c0,1.6 -1,2.8 -2.7,3.3c-0.5,0.1 -1,0.1 -1.4,0.1c-3.4,0 -10.4,0 -10.4,0c-6.8,0 -12.5,0 -14.3,0l0,0c0,0 0,0 0,0c-0.1,0 -0.3,0 -0.4,0c-0.1,0 -0.2,0 -0.4,0c-0.2,0 -0.5,0 -0.8,0c-0.7,0.1 -1.1,0.5 -1.1,1.2c0,0.8 0.3,1.2 1.1,1.3c0.5,0.1 1,0.1 1.6,0.1l0,0l0,0l16.6,0c0.5,0 1,0 1.5,0c0.5,0 1,0 1.5,0c0.8,0 1.4,0 2,0c0,0 0.1,0 0.1,0c1.2,0 2.1,0.5 2.7,1.6c0.7,1.2 1.5,2.4 2.3,3.6c0.3,0.5 0.6,0.9 0.9,1.4c0.1,0.2 0.3,0.5 0.4,0.7c0.3,0.5 0.6,1 1,1.5c0.3,0.3 0.6,0.5 0.9,0.5c0.2,0 0.5,-0.1 0.8,-0.3c0.5,-0.3 0.7,-0.9 0.4,-1.5c-0.1,-0.3 -0.3,-0.5 -0.4,-0.8z" class="st0"/>
   <path id="svg_5" d="m123.799979,22.799932c-3.9,0 -5.1,0 -8.3,-0.1c-1.8,0 -3.5,-0.3 -5,-0.7c-3.7,-1.1 -5.8,-3.8 -5.8,-7.8c0,-2.5 0,-5 0,-7.4c0,-1.1 0,-2.1 0,-3.2c0,-0.1 0,-0.1 0,-0.2c0,-0.2 0,-0.3 0,-0.4c0.1,-0.9 0.6,-1.4 1.3,-1.4c0,0 0,0 0.1,0c0.7,0 1.1,0.5 1.2,1.4c0,0.3 0,0.6 0,0.9c0,0.1 0,0.2 0,0.3c0,1.2 0,2.4 0,3.6c0,1.8 0,3.5 0,5.3c0,4.8 2.1,6.9 6.9,7c1.5,0 3.1,0 5,0c1.3,0 2.6,0 3.9,0c1.3,0 0.3,0 1.6,0l0,0l0.9,0c1.9,0 3.7,0 5.6,0l0.7,0c0.6,0 1.1,0 1.7,-0.1c4.7,-0.6 5.7,-3.7 5.6,-6.2c0,-2.3 0,-4.7 0,-7c0,-0.9 0,-1.7 0,-2.6l0,-0.3c0,-0.5 0,-0.9 0.1,-1.3c0.1,-0.7 0.5,-1.1 1.2,-1.1l0.1,0c0.6,0 1.1,0.4 1.2,1c0.1,0.3 0.1,0.6 0.1,1l0,2.1c0,2.8 0,5.6 0,8.5c0,4.6 -2.8,7.8 -7.4,8.4c-1.5,0.2 -3,0.3 -4.5,0.3c-3.9,0 -2.5,0 -6.2,0z" class="st0"/>
  </g>
  <path id="svg_6" d="m6.799979,5.299932c3.8,0 6.9,3.1 6.9,6.9c0,3.8 -3.1,6.9 -6.9,6.9l-2.4,0l0,-13.8l2.4,0m0,-4l-6.3,0l0,21.7l6.3,0c6,0 10.8,-4.9 10.8,-10.8s-4.9,-10.9 -10.8,-10.9l0,0z" class="st0"/>
  <path id="svg_7" d="m54.299979,5.299932l0,13.8l-2.3,0c-3.8,0 -6.9,-3.1 -6.9,-6.9c0,-3.8 3.1,-6.9 6.9,-6.9l2.3,0m4,-4l-6.3,0c-6,0 -10.8,4.9 -10.8,10.8s4.8,10.9 10.8,10.9l6.3,0l0,-21.7l0,0z" class="st0"/>
  <rect id="svg_8" height="21.7" width="3.9" class="st0" y="1.299932" x="20.499979"/>
  <path id="svg_9" d="m39.799979,19.099932l-1.9,0c-3.8,0 -6.9,-3.1 -6.9,-6.9c0,-3.8 3.1,-6.9 6.9,-6.9l1.9,0l0,-3.9l-1.9,0c-6,0 -10.8,4.9 -10.8,10.8c0,6 4.9,10.8 10.8,10.8l1.9,0l0,-3.9z" class="st0"/>
 </g>
</svg>