<svg width="65" height="87" xmlns="http://www.w3.org/2000/svg">
 <style type="text/css">.st0{fill:#0074BB;}
	.st1{fill:#FFFFFF;}</style>

 <g>
  <title>background</title>
  <rect fill="none" id="canvas_background" height="89" width="67" y="-1" x="-1"/>
 </g>
 <g>
  <title>Layer 1</title>
  <g id="svg_1">
   <path id="svg_2" d="m36.7,4.2c7.4,0 14.7,2.5 21.6,7.3l-2.1,6.7l-0.2,0.7l0.2,0.7l2.1,6.7c-7,4.9 -14.1,7.3 -21.6,7.3c-4.5,0 -9.1,-0.9 -14.1,-2.6l-1.3,-0.5l-1.1,0.9l-4.5,3.6l1,-4.7l0.3,-1.7l-1.5,-0.9c-5,-3.1 -8.3,-6.7 -9.9,-8.7c2.1,-2.6 7.5,-8.4 15.6,-11.6c5.5,-2.2 10.5,-3.2 15.5,-3.2m0,-2.5c-6,0 -11.5,1.5 -16.4,3.4c-11.1,4.4 -17.2,13.1 -17.8,13.9c0.4,0.6 4.4,6.3 11.7,10.8l-2.3,11.5l9.9,-7.9c4.5,1.6 9.5,2.8 14.9,2.8c7.5,0 15.8,-2.3 24.5,-8.8l-2.6,-8.4l2.6,-8.4c-8.7,-6.7 -17,-8.9 -24.5,-8.9l0,0z" class="st0"/>
  </g>
  <g id="svg_3">
   <path id="svg_4" d="m8,53.9c4,0 7.3,3.3 7.3,7.3s-3.3,7.3 -7.3,7.3l-2.5,0l0,-14.6l2.5,0m0,-4.2l-6.7,0l0,22.9l6.7,0c6.3,0 11.5,-5.2 11.5,-11.5c0,-6.3 -5.2,-11.4 -11.5,-11.4l0,0z" class="st1"/>
   <path id="svg_5" d="m58.2,53.9l0,14.6l-2.5,0c-4,0 -7.3,-3.3 -7.3,-7.3s3.3,-7.3 7.3,-7.3l2.5,0m4.2,-4.2l-6.7,0c-6.3,0 -11.5,5.2 -11.5,11.5c0,6.3 5.2,11.5 11.5,11.5l6.7,0l0,-23l0,0z" class="st1"/>
   <rect id="svg_6" height="22.9" width="4.2" class="st1" y="49.7" x="22.4"/>
   <path id="svg_7" d="m42.9,68.4l-2,0c-4,0 -7.3,-3.3 -7.3,-7.3c0,-4 3.3,-7.3 7.3,-7.3l2,0l0,-4.2l-2,0c-6.3,0 -11.5,5.2 -11.5,11.5c0,6.3 5.2,11.5 11.5,11.5l2,0l0,-4.2z" class="st1"/>
  </g>
  <g id="svg_8">
   <path id="svg_9" d="m8.2,84.1c-2.2,0 -3.4,0 -5.6,0c-0.3,0 -0.5,0 -0.7,-0.1c-0.2,-0.1 -0.3,-0.3 -0.3,-0.4c0,-0.2 0.1,-0.4 0.3,-0.4c0.2,-0.1 0.4,-0.1 0.6,-0.1c1.3,0 2.5,0 3.8,0l4,0c1.2,0 1.3,0 2.5,0l0.1,0c0.3,0 0.5,0 0.8,-0.1c0.7,-0.1 1.1,-0.6 1.1,-1.3c0,-0.6 -0.5,-1.1 -1.1,-1.2c-0.4,-0.1 -0.7,-0.1 -1.1,-0.1c0,0 -1,0 -1.4,0l-3,0c-1.6,0 -1.7,0 -3.7,0c-0.7,0 -1.2,-0.1 -1.7,-0.2c-1,-0.3 -1.6,-1.1 -1.6,-2.2c0,-1 0.6,-1.8 1.6,-2.1c0.4,-0.1 0.9,-0.2 1.3,-0.2c2.6,0 3.3,0 5.3,0c1,0 3.8,0 4.8,0c0,0 0.2,0 0.2,0c0,0 0.1,0 0.1,0c0.2,0 0.5,0.1 0.6,0.5c0,0.4 -0.4,0.5 -0.5,0.5c-0.1,0 -0.3,0 -0.4,0l-0.3,0l-2.6,0c-2.8,0 -3.7,0 -6.5,0c-0.5,0 -0.9,0 -1.2,0.1c-0.7,0.1 -1.1,0.6 -1.1,1.2c0,0.6 0.4,1.2 1.1,1.3c0.3,0.1 0.5,0.1 0.8,0.1l0.2,0c0.9,0 1.9,0 2.8,0l0.9,0c2.1,0 2.4,0 4.7,0c0.5,0 1,0 1.4,0.1c1.1,0.3 1.8,1.2 1.8,2.3c0,1.1 -0.8,1.9 -1.9,2.1c-0.4,0.1 -0.9,0.1 -1.3,0.1c-2.2,0.1 -2.4,0.1 -4.8,0.1z" class="st1"/>
   <path id="svg_10" d="m48.3,84.1c-0.3,0 -0.5,-0.2 -0.5,-0.5c0,-0.2 0,-0.5 0,-0.7c0,-1.4 0,-2.9 0,-4.3c0.1,-1.3 1.1,-2.4 2.6,-2.7c0.5,-0.1 1,-0.1 1.5,-0.1c1.9,0 1,0 3.6,0c1.1,0 5.9,0 5.9,0c0.1,0 0.1,0 0.2,0c0.1,0 0.1,0 0.2,0c0.1,0 0.2,0 0.2,0c0.3,0 0.5,0.2 0.5,0.5c0,0.3 -0.1,0.4 -0.5,0.5c-0.2,0 -0.4,0 -0.5,0l-4.7,0c-2.4,0 -1.9,0 -4.4,0c-0.6,0 -1.1,0 -1.5,0.1c-1.2,0.2 -1.9,0.9 -2,2.1l0,0.5l5.2,0c2.9,0 0.5,0 3.4,0c0.1,0 0.1,0 0.2,0c0,0 0.1,0 0.1,0c0.1,0 0.2,0 0.3,0c0.3,0 0.4,0.2 0.4,0.5c0,0.3 -0.1,0.5 -0.4,0.5c-0.2,0 -0.4,0 -0.6,0l-0.1,0c-2.8,0 -0.3,0 -3.1,0l-5.3,0c0,0 0,0.9 0,1.1c0,0.3 0,0.5 0,0.8c0,0.4 0,0.8 0,1.2c-0.2,0.3 -0.4,0.5 -0.7,0.5l0,0z" class="st1"/>
   <path id="svg_11" d="m46.2,83.1c0,0 -0.1,-0.1 -0.1,-0.1c-0.3,-0.5 -0.6,-1 -1,-1.5l-0.4,-0.6l-0.3,-0.5c0,0 0.4,-0.1 0.9,-0.4c0.8,-0.6 1.2,-1.3 1,-2.4c-0.1,-0.9 -0.7,-1.5 -1.7,-1.7c-0.4,-0.1 -0.8,-0.1 -1.3,-0.1c-1.7,0 -2.6,0 -3.7,0l0,0c-0.8,0 -2.3,0 -3.5,0c-0.2,0 -0.4,0 -0.5,0c-0.3,0 -0.5,0 -0.8,0c-0.2,0 -0.4,0 -0.6,0l0,0c0,0 -0.1,0 -0.1,0c-0.1,0 -0.1,0 -0.2,0c-0.1,0 -0.1,0 -0.2,0c-0.1,0 -0.2,0 -0.2,0c-0.3,0 -0.5,0.2 -0.5,0.5c0,0.3 0.1,0.4 0.5,0.5c0.2,0 0.4,0 0.5,0l0.1,0l0,0c0.5,0 2.3,0 4,0c2.1,0 3.1,0 5.2,0c0.3,0 0.7,0 1,0.1c0.7,0.1 1.1,0.6 1.1,1.2c0,0.6 -0.4,1.1 -1.1,1.3c-0.2,0.1 -0.4,0.1 -0.6,0.1c-1.4,0 -4.1,0 -4.1,0c-2.7,0 -4.9,0 -5.6,0l0,0l0,0c-0.1,0 -0.1,0 -0.2,0c0,0 -0.1,0 -0.1,0c-0.1,0 -0.2,0 -0.3,0c-0.3,0 -0.4,0.2 -0.4,0.5c0,0.3 0.1,0.5 0.4,0.5c0.2,0 0.4,0 0.6,0l0,0l0,0l6.6,0c0.2,0 0.4,0 0.6,0c0.2,0 0.4,0 0.6,0c0.3,0 0.6,0 0.8,0c0,0 0,0 0.1,0c0.5,0 0.8,0.2 1.1,0.6c0.3,0.5 0.6,1 0.9,1.4c0.1,0.2 0.2,0.4 0.4,0.5c0.1,0.1 0.1,0.2 0.2,0.3c0.1,0.2 0.3,0.4 0.4,0.6c0.1,0.1 0.2,0.2 0.3,0.2c0.1,0 0.2,0 0.3,-0.1c0.2,-0.1 0.3,-0.4 0.2,-0.6c-0.1,-0.1 -0.2,-0.2 -0.3,-0.3z" class="st1"/>
   <path id="svg_12" d="m24.6,84.1c-1.5,0 -2,0 -3.3,0c-0.7,0 -1.4,-0.1 -2,-0.3c-1.5,-0.4 -2.3,-1.5 -2.3,-3.1c0,-1 0,-2 0,-2.9c0,-0.4 0,-0.8 0,-1.3c0,0 0,-0.1 0,-0.1c0,-0.1 0,-0.1 0,-0.2c0,-0.4 0.2,-0.6 0.5,-0.6c0,0 0,0 0,0c0.3,0 0.4,0.2 0.5,0.6c0,0.1 0,0.2 0,0.4c0,0 0,0.1 0,0.1c0,0.5 0,0.9 0,1.4c0,0.7 0,1.4 0,2.1c0,1.9 0.8,2.7 2.7,2.8c0.6,0 1.2,0 2,0c0.5,0 1,0 1.5,0c0.5,0 0.1,0 0.6,0l0,0l0.4,0c0.7,0 1.5,0 2.2,0l0.3,0c0.2,0 0.4,0 0.7,0c1.9,-0.3 2.2,-1.5 2.2,-2.4c0,-0.9 0,-1.9 0,-2.8c0,-0.3 0,-0.7 0,-1l0,-0.1c0,-0.2 0,-0.4 0,-0.5c0,-0.3 0.2,-0.4 0.5,-0.4l0,0c0.2,0 0.4,0.2 0.5,0.4c0,0.1 0,0.2 0,0.4l0,0.8c0,1.1 0,2.2 0,3.3c0,1.8 -1.1,3.1 -2.9,3.3c-0.6,0.1 -1.2,0.1 -1.8,0.1c-1.4,0 -0.8,0 -2.3,0z" class="st1"/>
  </g>
 </g>
</svg>