<svg width="150" height="140" xmlns="http://www.w3.org/2000/svg">
 <style type="text/css">.st0{fill:#FFFFFF;}</style>

 <g>
  <title>background</title>
  <rect fill="none" id="canvas_background" height="142" width="152" y="-1" x="-1"/>
 </g>
 <g>
  <title>Layer 1</title>
  <g id="svg_1">
   <path id="svg_2" d="m4.874908,69.907196c0,-4.878067 0,-9.75613 0,-14.634167c0,-1.696724 0,-3.4995 0.106051,-5.196224c0.106051,-2.439018 2.54507,-4.984085 5.090139,-5.090137c2.863222,-0.106052 5.832464,-0.106052 8.69569,-0.106052c0.530224,0 0.848347,-0.106052 1.060448,-0.636276c2.014847,-4.559914 4.665966,-8.801708 7.847309,-12.513275c2.226952,-2.651119 4.66597,-5.090137 7.211071,-7.423138c4.135742,-3.923672 9.013809,-6.892914 14.103951,-9.331932c4.984119,-2.333 10.074257,-3.923672 15.482548,-4.878069c3.605522,-0.636276 7.317085,-0.954397 11.028656,-0.954397c12.19516,0.21207 23.435913,3.711569 33.616226,10.498432c4.135742,2.757172 7.847313,6.044537 11.134705,9.756104c4.029694,4.453896 7.317093,9.438015 9.756096,14.846275c0.212112,0.530224 0.530228,0.742329 1.166504,0.742329c2.439011,0 4.878052,0 7.317078,0c1.80278,0 3.393448,0.424171 4.772018,1.802776c1.272552,1.272518 1.908829,2.86319 1.908829,4.559914c0,6.786861 0,13.573723 0,20.466637c0,5.726456 0,11.346817 0,17.073227c0,3.075287 -1.80278,5.514343 -4.666,6.15062c-1.166473,0.212067 -2.439026,0.212067 -3.605515,0.212067c-1.908798,0 -3.923645,0 -5.832458,0c-0.530228,0 -0.636276,0.318161 -0.848343,0.636276c-1.696732,3.605515 -3.711571,6.998962 -6.044563,10.180313c-6.468742,8.695648 -14.634178,15.270447 -24.496368,19.72435c-4.665962,2.12088 -9.650055,3.499451 -14.634171,4.347809c-2.333,0.424194 -4.66597,0.530212 -6.998962,0.636261c-2.439018,0.106079 -4.878075,0.106079 -7.317093,0c-6.892914,-0.530212 -13.467705,-2.12088 -19.830395,-4.878052c-4.772015,-2.120911 -9.22588,-4.66597 -13.361622,-7.953369c-7.52919,-5.938477 -13.467705,-13.361618 -17.603447,-22.057312c-0.318153,-0.636276 -0.636276,-0.742325 -1.1665,-0.742325c-2.439018,0 -4.772018,0 -7.211069,0c-2.014845,0 -3.711569,-0.530228 -5.090139,-2.120895c-1.060448,-1.166473 -1.590672,-2.545074 -1.590672,-4.029694c-0.106051,-6.468704 0,-12.83139 0,-19.088074c0,0 0,0 0,0zm75.503899,5.302246c-1.484619,-6.680817 -2.86322,-13.043499 -4.241791,-19.512241c-1.908798,0 -3.817619,0 -5.832466,0c2.226944,9.437977 4.453896,18.875965 6.786865,28.313953c1.908821,0 3.923668,0 5.832466,0c0.212097,0 0.53022,-0.31813 0.53022,-0.530228c1.484619,-5.408264 2.86322,-10.816559 4.347847,-16.224838c0.318123,-1.378571 0.742325,-2.757172 1.166496,-4.135746c0.742294,2.226948 1.272522,4.453861 1.908798,6.680805c1.272545,4.559952 2.439049,9.119858 3.711563,13.679779c0.106056,0.212097 0.318153,0.530228 0.424179,0.530228c1.908821,0 3.817619,0 5.72644,0c2.33297,-9.437988 4.559921,-18.769913 6.892914,-28.313953c-1.908821,0 -3.605545,0 -5.408287,0c-0.106056,0 -0.318153,0.318123 -0.424179,0.424171c-0.742325,3.393448 -1.48465,6.892914 -2.226944,10.286358c-0.636276,2.969254 -1.272552,5.832474 -2.014847,8.907761c-0.106049,-0.318146 -0.212105,-0.424164 -0.212105,-0.636276c-1.590668,-6.150589 -3.075287,-12.301205 -4.665962,-18.557842c0,-0.212097 -0.318153,-0.424171 -0.530228,-0.53022c-1.908821,0 -3.923668,0 -5.832466,0c-0.212097,0 -0.636269,0.318123 -0.636269,0.53022c-1.272552,4.66597 -2.439018,9.225918 -3.711571,13.891888c-0.636246,1.696716 -1.060448,3.287384 -1.590675,5.196182zm-45.06905,-0.848343c0,0 -0.106052,0 -0.106052,0c-0.106052,-0.106049 -0.21207,-0.212097 -0.21207,-0.424179c-1.696724,-2.757172 -3.393448,-5.514343 -5.090172,-8.271515c-1.908794,-3.181339 -3.817619,-6.362682 -5.832466,-9.437977c-0.106052,-0.212074 -0.424171,-0.530228 -0.636276,-0.530228c-1.69669,0 -3.499466,0 -5.302238,0c0,9.437977 0,18.875996 0,28.207935c1.802773,0 3.499496,0 5.302238,0c0,-6.044571 0,-12.19516 0,-18.345749c0.106052,0.106018 0.212105,0.212067 0.212105,0.212067c3.393448,5.514343 6.786861,10.922638 10.180309,16.542999c0.742294,1.166504 1.484623,1.80278 2.863194,1.590683c1.272549,-0.106049 2.545101,0 3.923672,0c0,-9.437988 0,-18.875977 0,-28.207935c-1.802776,0 -3.49947,0 -5.302242,0c0,6.256638 0,12.513309 0,18.663898zm95.864544,-10.604481c0.318115,-3.181351 -1.908798,-6.468742 -5.19619,-7.741264c-2.332993,-0.848377 -4.772011,-0.95443 -7.105011,-0.848377c-2.33297,0.212105 -4.559914,0.742329 -6.362686,2.439053c-3.181351,2.86319 -3.181351,8.271488 0.212097,11.02866c1.696724,1.484619 3.817619,2.120895 5.938522,2.651108c2.014839,0.636276 4.029686,1.060455 5.938477,1.80275c2.226959,0.848373 2.333008,3.287399 0.848389,4.878067c-1.272552,1.378601 -2.863228,1.590668 -4.559952,1.590668c-2.014847,0 -3.923637,-0.424164 -5.090141,-2.226944c-0.53022,-0.954391 -0.848343,-2.014847 -1.378571,-3.075287c-1.696724,0.212097 -3.499496,0.318146 -5.408287,0.530212c0.106049,0.530228 0.106049,0.848389 0.212067,1.272552c0.742325,3.923645 2.86322,6.680817 6.786896,7.847321c3.075294,0.848343 6.150589,0.848343 9.331924,0.106049c1.80278,-0.424179 3.39344,-1.272552 4.665962,-2.651123c1.696716,-1.908829 2.332993,-4.135742 2.120895,-6.574799c-0.212067,-2.332962 -1.166489,-4.241791 -2.969238,-5.620361c-2.226936,-1.590668 -4.772011,-2.120895 -7.317078,-2.86322c-1.590675,-0.424164 -3.075325,-0.848343 -4.559952,-1.484619c-0.954391,-0.318115 -1.590668,-1.1665 -1.590668,-2.226948c0,-1.060448 0.742325,-1.696724 1.696724,-2.120895c1.166496,-0.530228 2.333,-0.636276 3.605515,-0.636276c2.439049,0 4.241791,0.95443 4.772018,3.499496c0.106049,0.424179 0.318161,0.530228 0.742325,0.530228c1.272522,0 2.969231,0 4.665962,-0.106049zm-63.096664,15.588596c-0.318123,0 -0.636276,0 -0.954399,0c-4.66597,0 -9.437984,0 -14.103981,0c-0.636246,0 -0.848347,-0.212097 -0.848347,-0.848343c0,-2.120895 0,-4.135773 0,-6.256668c0,-0.636246 0.212101,-0.848343 0.848347,-0.848343c4.135773,0 8.377563,0 12.513306,0c0.318123,0 0.636276,0 0.848351,0c0,-1.590683 0,-3.181351 0,-4.66597c-0.318123,0 -0.636276,0 -0.954399,0c-4.135742,0 -8.271484,0 -12.407257,0c-0.636246,0 -0.848347,-0.212097 -0.848347,-0.848373c0,-1.590683 0,-3.181355 0,-4.772022c0,-0.636246 0.212101,-0.848351 0.848347,-0.848351c4.559944,0 9.225914,0 13.785828,0c0.212105,0 0.424202,0 0.742325,0c0,-1.590668 0,-3.075287 0,-4.665962c-6.998962,0 -13.997929,0 -20.996861,0c0,9.437977 0,18.769917 0,28.207935c7.211033,0 14.316051,0 21.421032,0c0.106056,-1.378601 0.106056,-2.863235 0.106056,-4.453903zm56.521873,15.694626c-0.848343,0 -1.378563,-0.106049 -2.014839,-0.106049c-5.302246,0 -10.710533,0 -16.012779,0c-0.53022,0 -0.742325,0.212097 -0.954391,0.742325c-1.060448,3.393417 -2.120903,6.786865 -3.393448,10.180313c-0.530228,1.696686 -1.378571,3.287354 -2.014847,4.772018c2.439018,1.166458 4.984116,2.439011 7.423134,3.605515c0.212105,0.106049 0.530228,0 0.742332,-0.106049c1.272514,-1.060455 2.651115,-2.014847 3.817589,-3.181351c3.075325,-2.86322 5.938515,-5.832458 8.165459,-9.331924c1.484627,-2.120911 2.863228,-4.241806 4.241791,-6.574799zm-74.7616,-66.065918c-2.439018,-1.1665 -4.984119,-2.439018 -7.423138,-3.605518c-0.212101,-0.106049 -0.530224,0 -0.742325,0.21207c-1.272518,1.060452 -2.545071,2.014881 -3.711571,3.075329c-2.86319,2.757137 -5.620361,5.620361 -7.953362,8.907757c-1.590675,2.33297 -2.969242,4.665966 -4.559917,7.104984c0.848347,0 1.378571,0.106052 2.014847,0.106052c5.408295,0 10.710537,0 16.118828,0c0.530224,0 0.742294,-0.21207 0.848347,-0.742294c1.060448,-3.393448 2.120895,-6.786896 3.393448,-10.180309c0.530224,-1.696724 1.378567,-3.287395 2.014843,-4.878071zm-24.28426,65.959869c4.029724,7.847305 9.544037,14.316055 16.436951,19.406189c2.651119,-1.272522 5.19619,-2.439026 7.847309,-3.711578c0,0 0,-0.106049 0,-0.106049c-2.332966,-4.878036 -4.135742,-9.862152 -5.514309,-15.164398c-0.106052,-0.212097 -0.530228,-0.530212 -0.742329,-0.530212c-3.393414,0 -6.892914,0 -10.286327,0c-2.545105,0.106049 -4.984123,0.106049 -7.741295,0.106049zm98.939812,-50.159195c-4.029724,-7.847313 -9.544029,-14.316051 -16.436943,-19.406193c-2.651123,1.272522 -5.19619,2.439018 -7.847313,3.711571c2.439018,4.984089 4.347809,10.286327 5.620361,15.800674c6.256668,-0.106052 12.407257,-0.106052 18.663895,-0.106052zm-69.35331,64.263168c5.620361,-1.696716 11.346809,-2.651123 17.179276,-2.969238c0,-3.711563 0,-7.423141 0,-11.134705c-7.52919,0 -14.952328,0 -22.375465,0c1.1665,4.984085 2.86319,9.650055 5.19619,14.103943zm0,-78.367149c-2.333,4.453896 -4.02969,9.119862 -5.302242,13.997929c7.52919,0 14.952328,0 22.375469,0c0,-3.711567 0,-7.423138 0,-11.134705c-5.726418,-0.212105 -11.452866,-1.060452 -17.073227,-2.863224zm45.069054,14.103981c-1.272552,-4.984089 -2.969246,-9.544033 -5.302246,-13.997898c-5.620361,1.69669 -11.346809,2.651119 -17.179276,2.969242c0,3.711571 0,7.423138 0,11.134708c7.52919,-0.106052 14.952332,-0.106052 22.481522,-0.106052zm-22.375465,61.2939c5.938515,0.318115 11.558876,1.166504 17.179245,2.86319c2.332993,-4.453857 4.029716,-9.119827 5.302238,-13.997894c-7.52916,0 -14.952293,0 -22.375435,0c-0.106049,3.817612 -0.106049,7.423141 -0.106049,11.134705zm-19.830364,-80.169899c4.772015,1.272552 9.437984,2.120895 14.316051,2.226948c0,-4.559948 0,-9.013809 0,-13.467707c-4.984123,0.848379 -10.498466,5.196224 -14.316051,11.240759zm34.146412,0c-3.711563,-5.30224 -7.847305,-9.650085 -14.316048,-11.240759c0,4.559948 0,9.013811 0,13.573759c4.878067,-0.318123 9.650085,-0.954399 14.316048,-2.333zm-19.83036,85.684242c-4.878067,0.318146 -9.650085,0.954391 -14.316051,2.332993c3.605518,5.302246 7.847309,9.650085 14.316051,11.240753c0,-4.559937 0,-9.013824 0,-13.573746zm5.514313,13.467667c6.57476,-1.590668 10.710533,-5.938507 14.316048,-11.240753c-4.772011,-1.378571 -9.437981,-2.014847 -14.316048,-2.332962c0,4.66597 0,9.013809 0,13.573715zm-25.344707,-100.954651c1.802773,-2.439018 3.605515,-4.665966 5.302238,-6.998966c-3.605515,1.1665 -6.998962,2.757174 -10.498428,4.665998c1.802742,0.954365 3.499466,1.590641 5.19619,2.332968zm45.175106,0c1.590668,-0.742294 3.287392,-1.484621 5.19619,-2.226948c-3.499474,-2.014845 -6.892914,-3.499466 -10.498436,-4.665966c1.696724,2.226948 3.499466,4.559914 5.302246,6.892914zm5.090134,93.743622c-1.696724,-0.742325 -3.287392,-1.378571 -4.878067,-2.014847c-0.424171,-0.212097 -0.636276,0 -0.848343,0.31813c-0.848381,1.272537 -1.696724,2.439041 -2.651123,3.711563c-0.742325,0.954391 -1.484657,1.802765 -2.333,2.86322c3.817619,-1.272552 7.317116,-2.86322 10.710533,-4.878067zm-55.46143,0c3.499496,2.014847 6.892914,3.499466 10.39241,4.66597c-1.590672,-2.120911 -3.181343,-4.347855 -4.772015,-6.574768c-0.106052,-0.106049 -0.530228,-0.212097 -0.742329,-0.212097c-1.590672,0.742325 -3.075325,1.378571 -4.878067,2.120895z" class="st0"/>
  </g>
 </g>
</svg>