<svg width="90" height="90" xmlns="http://www.w3.org/2000/svg">
 <style type="text/css">.st0{fill:#0074BB;}
	.st1{fill:#FFFFFF;}</style>

 <g>
  <title>background</title>
  <rect fill="none" id="canvas_background" height="92" width="92" y="-1" x="-1"/>
 </g>
 <g>
  <title>Layer 1</title>
  <g id="svg_1">
   <circle id="svg_2" r="44.900002" cy="45" cx="45" class="st0"/>
   <path id="svg_3" d="m89.5,51.2c-2.8,-2.4 -8.5,-6.3 -14.3,-6.3c-5.1,0 -7.8,1.9 -10.3,3.6s-4.7,3.2 -9.3,2.5c-4.6,-0.7 -8.1,-3.4 -9.3,-7.2c-1.1,-3.6 0,-7.4 3,-10.2c6.7,-6.3 15.5,-3 15.6,-2.9c0.6,0.2 1.4,0.1 1.8,-0.5c0.4,-0.5 0.5,-1.3 0.1,-1.8c-0.2,-0.3 -5.7,-8.3 -15.6,-9.7c-7.3,-1 -15,1.7 -22.8,8.3c-5,4.2 -9.1,9.4 -12.7,14c-5.5,7 -9.8,12.5 -14.9,11.7c0.2,1.1 0.4,2.2 0.7,3.2c0.1,0 0.3,0 0.4,0c6.1,0 10.9,-6.1 16.3,-13c3.5,-4.5 7.4,-9.5 12.2,-13.5c7.1,-5.9 13.9,-8.5 20.3,-7.6c4.5,0.6 8,2.9 10.3,4.9c-3.8,-0.3 -9.2,0.3 -13.9,4.6c-3.9,3.6 -5.4,8.6 -3.9,13.4c1.6,5 6.1,8.6 11.8,9.4c5.9,0.8 8.7,-1.1 11.5,-3c2.3,-1.6 4.4,-3 8.5,-3c6,0 12.2,5.4 13.6,6.8c0.5,-1.3 0.7,-2.5 0.9,-3.7z" class="st1"/>
  </g>
 </g>
</svg>