<svg width="900" height="900" xmlns="http://www.w3.org/2000/svg">
 <style type="text/css">.st0{fill:#2C9A7C;}
	.st1{fill:#FFFFFF;}</style>

 <g>
  <title>background</title>
  <rect fill="none" id="canvas_background" height="902" width="902" y="-1" x="-1"/>
 </g>
 <g>
  <title>Layer 1</title>
  <g id="svg_1">
   <circle id="svg_2" r="440.903259" cy="449.999991" cx="449.999992" class="st0"/>
   <path id="svg_3" d="m886.97522,510.88208c-27.494873,-23.567169 -83.467163,-61.8638 -140.421143,-61.8638c-50.080322,0 -76.593506,18.657288 -101.1427,35.350555c-24.549194,16.693573 -46.152222,31.423035 -91.322876,24.549194c-45.170471,-6.873566 -79.539337,-33.38681 -91.323029,-70.701447c-10.801422,-35.350891 0,-72.665497 29.458984,-100.160736c65.791901,-61.8638 152.204865,-29.459045 153.18692,-28.47702c5.891846,1.964081 13.747437,0.982025 17.675537,-4.90979c3.927856,-4.909851 4.909912,-12.765472 0.981812,-17.675293c-1.963745,-2.946106 -55.972046,-81.503464 -153.186646,-95.250946c-71.683777,-9.819672 -147.295044,16.693573 -223.888641,81.503174c-49.098373,41.242706 -89.35907,92.305115 -124.709641,137.475342c-54.008179,68.737701 -96.232933,122.74585 -146.313313,114.890259c1.964053,10.801697 3.928107,21.603333 6.873889,31.423035c0.982027,0 2.94578,0 3.927809,0c59.900043,0 107.034336,-59.900024 160.06078,-127.65567c34.368851,-44.188507 72.665512,-93.286865 119.79982,-132.565552c69.719696,-57.936279 136.493347,-83.467194 199.339417,-74.629547c44.188568,5.891861 78.557343,28.476974 101.142548,48.116333c-37.314697,-2.945801 -90.341064,2.945801 -136.493378,45.170532c-38.296631,35.350891 -53.026154,84.449249 -38.296631,131.583527c15.711212,49.098358 59.899719,84.449188 115.87204,92.304779c57.935913,7.855896 85.431152,-10.801697 112.926147,-29.458984c22.585083,-15.711487 43.206421,-29.458984 83.467163,-29.458984c58.917969,0 119.800049,53.026123 133.547607,66.773865c4.90979,-12.765747 6.873535,-24.5495 8.837524,-36.332825z" class="st1"/>
  </g>
 </g>
</svg>