<svg width="150" height="110" xmlns="http://www.w3.org/2000/svg">
 <style type="text/css">.st0{fill:#FFFFFF;}</style>

 <g>
  <title>background</title>
  <rect fill="none" id="canvas_background" height="112" width="152" y="-1" x="-1"/>
 </g>
 <g>
  <title>Layer 1</title>
  <g id="svg_1">
   <path id="svg_2" d="m16.199997,101.73996c2.047056,-6.917648 4.164703,-13.905899 6.211769,-20.823532c1.976471,-6.847084 3.882355,-13.694122 5.788235,-20.541191c0.917645,-3.105873 2.047054,-4.023521 5.435287,-4.023521c8.682354,0 17.435295,0 26.541187,0c-0.917648,-1.411751 -1.623535,-2.541168 -2.400005,-3.670593c-4.305878,-6.635281 -7.552944,-13.623516 -8.399998,-21.600006c-1.341179,-12.917637 7.835297,-25.411761 20.470589,-27.670575c13.694122,-2.470587 26.611778,5.576468 29.858818,18.635293c2.188255,8.752937 -0.070572,16.870583 -4.094116,24.564701c-1.694107,3.176476 -3.670586,6.211769 -5.717644,9.74118c2.117645,0 4.094139,0 6,0c6.635292,0 13.200012,0 19.835297,0c4.094101,0 4.941185,0.635307 6.070595,4.517662c3.81176,13.270569 7.623512,26.470581 11.43528,39.741165c0.141174,0.352951 0.352936,0.705894 0.564713,1.129417c0,0.847069 0,1.764694 0,2.611755c-1.270584,2.047081 -3.035278,2.682358 -5.435303,2.682358c-35.576469,-0.070587 -71.152943,-0.070587 -106.72941,0c-2.399996,0 -4.164703,-0.635277 -5.435293,-2.682358c0,-0.847061 0,-1.764687 0,-2.611755zm58.729416,-40.305893c6.988235,-7.341179 13.200005,-14.964718 16.44706,-24.494137c1.270576,-3.741161 1.835312,-7.552921 1.129417,-11.505871c-1.552948,-9.176472 -10.729416,-15.952945 -20.117661,-14.541179c-9.45882,1.411765 -16.517643,10.376475 -15.317642,19.552943c1.764702,12.705891 9.529419,21.882355 17.858826,30.988243zm-40.800003,7.200005c0.705879,0.211746 1.482353,0.494125 2.25882,0.635284c20.823528,3.81176 41.647057,7.62355 62.470612,11.294113c0.917625,0.141212 2.258804,-0.211746 2.964691,-0.776459c4.235283,-3.388222 8.258835,-6.98822 12.494125,-10.235306c1.552925,-1.199989 1.199974,-2.258812 0.847038,-3.81176c-0.423515,-1.835289 -1.623512,-1.482346 -2.752937,-1.482346c-9.035286,0 -18.070595,-0.070572 -27.176468,0.070595c-1.199982,0 -2.682343,0.705864 -3.529404,1.552948c-6.635307,6.56469 -6.776474,6.56469 -13.411774,-0.070602c-0.847054,-0.847076 -2.329407,-1.482346 -3.529411,-1.55294c-8.329407,-0.141167 -16.72942,-0.070572 -25.058826,-0.070572c-4.517643,-0.000031 -4.517643,-0.000031 -5.576466,4.447044zm58.588234,18.776451c-15.81176,-2.894112 -30.917648,-5.576447 -46.094124,-8.329384c0,6.98822 0,13.411743 0,20.04705c10.517647,0 20.894135,0 31.199997,0c0.494125,0 1.058838,-0.211777 1.411774,-0.494118c4.305893,-3.599998 8.682365,-7.200012 13.482353,-11.223549zm-1.623512,11.576523c11.505875,0 22.37648,0 33.529427,0c-2.188255,-7.552986 -4.235321,-14.894142 -6.423553,-22.588257c-9.105873,7.623512 -17.929405,14.894112 -27.105873,22.588257zm-59.294128,-22.517708c-2.18824,7.62352 -4.235292,14.964722 -6.352943,22.447075c4.658829,0 8.823528,0 13.199997,0c0,-0.847046 0,-1.411766 0,-2.04705c0,-5.92942 0.070595,-11.788246 -0.070576,-17.717674c0,-0.635284 -0.705887,-1.623512 -1.200012,-1.835258c-1.835293,-0.423538 -3.600002,-0.56472 -5.576466,-0.847092z" class="st0"/>
   <circle id="svg_3" r="9.105869" cy="28.257591" cx="75.352945" class="st0"/>
  </g>
 </g>
</svg>