<svg width="140" height="100" xmlns="http://www.w3.org/2000/svg">
 <style type="text/css">.st0{fill:#FFFFFF;}</style>

 <g>
  <title>background</title>
  <rect fill="none" id="canvas_background" height="102" width="142" y="-1" x="-1"/>
 </g>
 <g>
  <title>Layer 1</title>
  <g id="svg_1">
   <path id="svg_2" d="m6.050003,89.347733c0,-7.931763 0,-16.404373 0,-25.327621c13.610224,0 26.859894,0 40.560284,0c0,-7.48111 0,-14.511562 0,-22.082806c-9.554226,0 -19.018288,0 -28.933016,0c-0.901339,-12.889137 3.244825,-23.164396 13.249695,-30.465248c11.446989,-8.382457 23.885481,-9.19367 36.233839,-2.163222c12.258186,6.940309 17.125443,18.026793 16.855049,32.358081c-9.734505,0 -19.198563,0 -29.113293,0c0,7.571239 0,14.601669 0,22.082798c26.319111,0 52.548107,0 79.047436,0c0,8.92326 0,17.305691 0,25.327633c-5.498138,1.71254 -10.725899,4.146133 -16.133934,4.867233c-5.58831,0.721054 -11.807571,0.811188 -17.035324,-0.991486c-7.390991,-2.523743 -14.060867,-3.154678 -21.181465,0.270386c-6.30938,2.974442 -13.06942,2.974442 -19.378792,-0.090103c-7.030434,-3.334961 -13.700363,-3.334961 -20.640656,0c-6.579792,3.154678 -13.159557,2.613876 -19.9196,0.090103c-4.326416,-1.622391 -8.92325,-2.523727 -13.610224,-3.875748zm7.300852,-17.395828c0,3.064545 -0.18028,5.588318 0.090139,8.021912c0.090139,1.171768 0.72106,2.884293 1.532259,3.244827c7.841661,3.154694 15.593182,6.850189 24.336153,2.073074c6.66993,-3.605362 13.970753,-3.515213 20.820965,-0.180252c6.850151,3.33493 13.429916,3.154678 20.189957,-0.090149c6.579765,-3.154678 13.520088,-3.334961 19.82946,0.090149c8.923279,4.867218 16.855049,1.532257 24.876991,-1.802673c0.811172,-0.360535 1.532234,-1.71254 1.622398,-2.704025c0.180275,-2.794159 0.090111,-5.588318 0.090111,-8.562714c-1.442123,-0.180283 -2.433624,-0.360535 -3.425079,-0.360535c-21.632133,0 -43.174156,-0.090134 -64.806293,0.090103c-1.802677,0 -3.605354,1.892822 -5.317867,2.974442c0.180279,0.360535 0.27039,0.721054 0.450672,1.081589c-1.98296,0 -3.965916,0 -6.129097,0c-0.360558,-1.352005 -0.721115,-2.70401 -1.081615,-3.965881c-11.086487,0.090134 -21.722277,0.090134 -33.079153,0.090134zm43.444551,-37.67598c0.721058,-9.554201 -1.622402,-17.485973 -6.219261,-21.451874c-4.236252,4.68696 -6.760017,13.97077 -5.948818,21.451874c3.875748,0 7.841663,0 12.168079,0zm19.288624,0c-1.892792,-8.743002 -5.948822,-14.962234 -14.060871,-19.018261c1.17173,6.669903 2.253345,12.799026 3.425083,19.018261c3.605354,0 6.850204,0 10.635788,0zm-36.864735,-18.567577c-8.021912,3.695482 -13.429947,11.356865 -12.889137,18.747856c2.253347,0 4.686947,0.360531 6.940296,-0.180279c1.352005,-0.27039 3.154682,-1.802677 3.425102,-3.064548c1.081589,-4.957365 1.622398,-10.09498 2.523739,-15.503029z" class="st0"/>
   <path id="svg_3" d="m103.079155,19.174206c10.004837,-0.090139 17.936668,7.481115 18.026779,17.48597c0.180275,10.275272 -7.661385,18.297184 -17.846504,18.297184c-10.00489,0 -17.846497,-7.841644 -17.846497,-17.756374c-0.000053,-10.004868 7.751495,-17.936655 17.666222,-18.026779zm0,28.211914c5.317924,0.180264 10.365395,-4.596836 10.635788,-10.004871c0.270393,-5.408031 -4.957367,-10.816067 -10.365395,-10.725927c-5.317871,0 -10.275238,4.957365 -10.365402,10.275259c-0.180275,5.317894 4.777084,10.365398 10.095009,10.45554z" class="st0"/>
  </g>
 </g>
</svg>