<svg width="295" height="35" xmlns="http://www.w3.org/2000/svg">
 <style type="text/css">.st0{fill:#0074BB;}</style>

 <g>
  <title>background</title>
  <rect fill="none" id="canvas_background" height="37" width="297" y="-1" x="-1"/>
 </g>
 <g>
  <title>Layer 1</title>
  <path id="svg_1" d="m291.600006,33.199997l-223.399994,0c-4,0 -8.699997,-2.700012 -10.699997,-6.200012l-9.5,-16.899995c-1.199997,-2.199981 -4.5,-4.100005 -7,-4.100005l-37.600006,0c-1.199997,0 -2.099991,-0.899994 -2.099991,-2.099976s0.899994,-2.100006 2.099991,-2.100006l37.600006,0c4,0 8.699997,2.699982 10.699997,6.199982l9.5,16.900024c1.199997,2.199982 4.5,4.099976 7,4.099976l223.399963,0c1.200012,0 2.100006,0.900024 2.100006,2.100006s-0.999969,2.100006 -2.099976,2.100006z" class="st0"/>
 </g>
</svg>