<svg width="295" height="35" xmlns="http://www.w3.org/2000/svg">

 <g>
  <title>background</title>
  <rect fill="none" id="canvas_background" height="37" width="297" y="-1" x="-1"/>
 </g>
 <g>
  <title>Layer 1</title>
  <path id="svg_1" d="m291.600037,33.199997l-223.400024,0c-4,0 -8.699997,-2.700012 -10.699997,-6.200012l-9.5,-16.899994c-1.199997,-2.199982 -4.5,-4.100006 -7,-4.100006l-37.600006,0c-1.199997,0 -2.099991,-0.899994 -2.099991,-2.099976s0.899994,-2.100006 2.099991,-2.100006l37.600006,0c4,0 8.699997,2.699982 10.699997,6.199982l9.5,16.900024c1.199997,2.199982 4.5,4.099976 7,4.099976l223.400024,0c1.199951,0 2.099976,0.900024 2.099976,2.100006s-1,2.100006 -2.099976,2.100006z"/>
 </g>
</svg>