<svg width="900" height="730" xmlns="http://www.w3.org/2000/svg">
 <style type="text/css">.st0{fill:#4470B3;}
	.st1{fill:#FFFFFF;}</style>

 <g>
  <title>background</title>
  <rect fill="none" id="canvas_background" height="732" width="902" y="-1" x="-1"/>
 </g>
 <g>
  <title>Layer 1</title>
  <g id="svg_1">
   <path id="svg_2" d="m134.830383,673.99408c22.687393,29.592468 58.198349,49.32074 98.641418,49.32074s75.95401,-19.728271 98.641449,-49.32074c22.687378,29.592468 58.198364,49.32074 98.641388,49.32074c40.443115,0 75.954132,-19.728271 98.641479,-49.32074c22.687378,29.592468 58.198364,49.32074 98.641479,49.32074s75.954041,-19.728271 98.641357,-49.32074c16.769165,22.687439 41.429565,39.456604 70.035522,46.361633c57.211914,-74.967468 91.736389,-167.690491 91.736389,-268.30484c0,-244.630569 -198.269348,-442.899965 -442.899994,-442.899965c-244.630615,0 -442.899965,198.269396 -442.899965,442.899965c0,97.654938 31.565092,187.418732 85.817842,261.399811c16.769188,-8.877869 33.53804,-22.687622 46.361633,-39.456604z" class="st0"/>
   <path id="svg_3" d="m491.912231,11.123564c0,0.986453 0,2.959111 0,3.945612c0,50.307198 0,99.627876 0,149.935066c0,49.320786 -0.986511,97.654999 0.986389,146.975647c0,11.837128 6.904724,26.633362 14.796234,35.511017c36.497223,42.41571 32.551544,102.587097 -10.850616,136.125092c-44.388641,33.537933 -101.600494,23.673859 -133.165894,-23.673889c-22.687439,-33.538025 -15.782745,-84.831726 13.809753,-114.424133c6.905029,-6.904724 12.823517,-18.741852 12.823517,-28.605957c0.986237,-100.61438 1.972626,-201.228462 0,-301.842842c0,-0.986501 0,-1.972658 0,-2.959159c-12.823517,1.972658 -24.660339,2.959159 -37.483856,5.918565c1.97287,91.73641 0.986359,184.459318 0,276.196089c0,10.85022 -4.932159,23.673859 -11.836853,32.551453c-27.619781,40.443146 -40.443024,82.858734 -20.714783,132.179474c26.632996,69.049042 106.532623,102.587128 174.595184,72.008392c69.048981,-31.565277 101.600861,-118.369629 60.171417,-179.527466c-23.674011,-34.524506 -25.646912,-67.07608 -25.646912,-104.559998c0,-32.551498 0,-66.0896 0,-98.641434c0,-43.402168 -1.972595,-87.79084 0,-131.193012c-11.836792,-1.972904 -24.660065,-3.945562 -37.483582,-5.918516z" class="st1"/>
   <path id="svg_4" d="m470.211243,251.80864c0,13.809738 0,28.605881 0,42.415695c-0.986511,27.619781 -0.986511,52.280151 24.66037,75.95401c29.592377,26.63327 20.714752,71.021912 -10.850616,97.654968c-27.619476,23.673889 -69.049011,19.728271 -94.695862,-8.877716c-25.646484,-27.619476 -25.646484,-71.021881 3.945923,-96.668457c14.796234,-12.823517 19.72821,-26.633301 18.741821,-45.375122c-0.986481,-48.334229 0.986389,-96.668762 -0.986481,-144.016602c-0.986511,-24.660324 10.850616,-25.646774 29.592377,-24.660324c16.769226,0 32.551575,-0.98645 30.578979,23.67392c-1.973022,26.63327 -0.986511,53.266556 -0.986511,79.899628z" class="st1"/>
  </g>
 </g>
</svg>