<svg width="120" height="100" xmlns="http://www.w3.org/2000/svg">
 <style type="text/css">.st0{fill:#CA4F23;}</style>

 <g>
  <title>background</title>
  <rect fill="none" id="canvas_background" height="102" width="122" y="-1" x="-1"/>
 </g>
 <g>
  <title>Layer 1</title>
  <g id="svg_1">
   <g id="svg_2">
    <path id="svg_3" d="m37.092701,65.080177c-2.700012,0 -5,0 -7.700012,0c-0.399994,-11 4.5,-19.299988 12.900024,-25.100006c11.199982,-7.600006 23.199986,-7.799988 34.699986,-0.299988c8.899994,5.799988 13.399994,14.299988 13.700012,25.399994c-2.800018,0 -5.100006,0 -7.800018,0c-0.599976,-7 -3.199982,-13.200012 -9,-17.700012c-5.099976,-3.899994 -10.900002,-5 -17.199986,-4.5c-10.100006,0.700012 -18.300018,9.899994 -19.600006,22.200012z" class="st0"/>
    <path id="svg_4" d="m65.192711,86.180183c1.299988,-2 2.299988,-4.399994 4.100006,-5.700012c1.199982,-0.899994 3.5,-0.199982 5.299988,-0.299988c-0.100006,1.700012 0.399994,3.899994 -0.5,5c-3.399994,3.899994 -7.299988,7.5 -11.100014,11.200012c-2,2 -4.199978,1.899994 -6.199978,-0.100006c-3.5,-3.5 -7.200012,-6.800018 -10.300018,-10.600006c-1,-1.200012 -0.5,-3.799988 -0.699982,-5.700012c1.899994,0.300018 4.199982,-0.099976 5.5,0.900024c1.5,1.099976 2.100006,3.399994 3.199982,5.099976c0.700012,-0.5 1.5,-1 2.200012,-1.5c0,-4.799988 0,-9.699982 0,-14.5c0,-1.899994 -0.299988,-3.899994 0.200012,-5.599976c0.5,-1.5 1.899994,-2.700012 2.89999,-4.100006c1.100006,1.399994 3.100006,2.799988 3.199982,4.299988c0.400024,6.600006 0.200012,13.300018 0.200012,19.899994c0.599976,0.600006 1.299995,1.200012 2.000008,1.700012z" class="st0"/>
    <path id="svg_5" d="m81.092705,83.780159c-0.5,-1.700012 -0.700012,-3 -1.200012,-4.299988c-0.399994,-1.100006 -1,-2.100006 -1.599976,-3.600006c13.399994,0 26.399994,0 39.399994,0c1.299988,7.5 1.100006,7.899994 -5.899994,7.899994c-10.300018,0 -20.500031,0 -30.700012,0z" class="st0"/>
    <path id="svg_6" d="m2.092704,75.880165c12.999999,0 25.999997,0 39.100003,0c-2.899994,7.899994 -2.899994,7.899994 -10.800018,7.899994c-7.299988,0 -14.69998,0 -21.999998,0c-7.199981,0 -7.199981,-0.099976 -6.299987,-7.899994z" class="st0"/>
    <path id="svg_7" d="m55.892689,14.580173c0,-2.899994 -0.399994,-5.899994 0.200012,-8.600008c0.299988,-1.5 2.5,-4 3.499996,-3.799988c1.699982,0.299988 4.199982,2.199982 4.299988,3.600006c0.500008,6.29999 0.400002,12.599982 0,18.900001c-0.100006,1.399994 -2.700012,3.799988 -3.799988,3.600006c-1.600002,-0.300018 -3.700008,-2.300018 -3.999996,-3.900024c-0.600006,-3.199982 -0.200012,-6.5 -0.200012,-9.799993z" class="st0"/>
    <path id="svg_8" d="m89.092705,40.580177c-3.299988,-0.100006 -5.700012,-3.899994 -3.700012,-6.100006c4.5,-5 9.300018,-9.799988 14.400024,-14.299988c0.899994,-0.800018 3.799988,-0.600006 4.799988,0.299988c1,0.899994 1.5,4 0.799988,4.800018c-4.699982,5.099976 -9.799988,9.799988 -14.799988,14.699982c-0.399994,0.299988 -1.100006,0.5 -1.5,0.600006z" class="st0"/>
    <path id="svg_9" d="m35.292683,36.580177c-0.899994,1.100006 -1.700012,2.700012 -3,3.399994c-0.799988,0.5 -2.799988,0.200012 -3.5,-0.5c-4.799988,-4.5 -9.5,-9.100006 -13.999998,-14c-0.799988,-0.899994 -0.399994,-3.600006 0.399994,-4.699982c0.700012,-1 3.600004,-1.700012 4.20001,-1.100006c5.199982,4.799988 10,10 14.899994,15c0.5,0.5 0.600006,1 1,1.899994z" class="st0"/>
   </g>
  </g>
 </g>
</svg>