<svg width="120" height="100" xmlns="http://www.w3.org/2000/svg">
 <style type="text/css">.st0{fill:#0074BB;}</style>

 <g>
  <title>background</title>
  <rect fill="none" id="canvas_background" height="102" width="122" y="-1" x="-1"/>
 </g>
 <g>
  <title>Layer 1</title>
  <g id="svg_1">
   <g id="svg_2">
    <path id="svg_3" d="m37.092708,65.080187c-2.7,0 -5,0 -7.7,0c-0.4,-11 4.5,-19.3 12.9,-25.1c11.2,-7.6 23.2,-7.8 34.7,-0.3c8.9,5.8 13.4,14.3 13.7,25.4c-2.8,0 -5.1,0 -7.8,0c-0.6,-7 -3.2,-13.2 -9,-17.7c-5.1,-3.9 -10.9,-5 -17.2,-4.5c-10.1,0.7 -18.3,9.9 -19.6,22.2z" class="st0"/>
    <path id="svg_4" d="m65.192708,86.180187c1.3,-2 2.3,-4.4 4.1,-5.7c1.2,-0.9 3.5,-0.2 5.3,-0.3c-0.1,1.7 0.4,3.9 -0.5,5c-3.4,3.9 -7.3,7.5 -11.1,11.2c-2,2 -4.2,1.9 -6.2,-0.1c-3.5,-3.5 -7.2,-6.8 -10.3,-10.6c-1,-1.2 -0.5,-3.8 -0.7,-5.7c1.9,0.3 4.2,-0.1 5.5,0.9c1.5,1.1 2.1,3.4 3.2,5.1c0.7,-0.5 1.5,-1 2.2,-1.5c0,-4.8 0,-9.7 0,-14.5c0,-1.9 -0.3,-3.9 0.2,-5.6c0.5,-1.5 1.9,-2.7 2.9,-4.1c1.1,1.4 3.1,2.8 3.2,4.3c0.4,6.6 0.2,13.3 0.2,19.9c0.6,0.6 1.3,1.2 2,1.7z" class="st0"/>
    <path id="svg_5" d="m81.092708,83.780187c-0.5,-1.7 -0.7,-3 -1.2,-4.3c-0.4,-1.1 -1,-2.1 -1.6,-3.6c13.4,0 26.4,0 39.4,0c1.3,7.5 1.1,7.9 -5.9,7.9c-10.3,0 -20.5,0 -30.7,0z" class="st0"/>
    <path id="svg_6" d="m2.092708,75.880187c13,0 26,0 39.1,0c-2.9,7.9 -2.9,7.9 -10.8,7.9c-7.3,0 -14.7,0 -22,0c-7.2,0 -7.2,-0.1 -6.3,-7.9z" class="st0"/>
    <path id="svg_7" d="m55.892708,14.580187c0,-2.9 -0.4,-5.9 0.2,-8.6c0.3,-1.5 2.5,-4 3.5,-3.8c1.7,0.3 4.2,2.2 4.3,3.6c0.5,6.3 0.4,12.6 0,18.9c-0.1,1.4 -2.7,3.8 -3.8,3.6c-1.6,-0.3 -3.7,-2.3 -4,-3.9c-0.6,-3.2 -0.2,-6.5 -0.2,-9.8z" class="st0"/>
    <path id="svg_8" d="m89.092708,40.580187c-3.3,-0.1 -5.7,-3.9 -3.7,-6.1c4.5,-5 9.3,-9.8 14.4,-14.3c0.9,-0.8 3.8,-0.6 4.8,0.3s1.5,4 0.8,4.8c-4.7,5.1 -9.8,9.8 -14.8,14.7c-0.4,0.3 -1.1,0.5 -1.5,0.6z" class="st0"/>
    <path id="svg_9" d="m35.292708,36.580187c-0.9,1.1 -1.7,2.7 -3,3.4c-0.8,0.5 -2.8,0.2 -3.5,-0.5c-4.8,-4.5 -9.5,-9.1 -14,-14c-0.8,-0.9 -0.4,-3.6 0.4,-4.7c0.7,-1 3.6,-1.7 4.2,-1.1c5.2,4.8 10,10 14.9,15c0.5,0.5 0.6,1 1,1.9z" class="st0"/>
   </g>
  </g>
 </g>
</svg>