<svg width="900" height="900" xmlns="http://www.w3.org/2000/svg">
 <style type="text/css">.st0{fill:#9B887A;}
	.st1{fill:#FFFFFF;}</style>

 <g>
  <title>background</title>
  <rect fill="none" id="canvas_background" height="902" width="902" y="-1" x="-1"/>
 </g>
 <g>
  <title>Layer 1</title>
  <g id="svg_1">
   <circle id="svg_2" r="439.934814" cy="449.999989" cx="450.000005" class="st0"/>
   <g id="svg_3">
    <path id="svg_4" d="m361.817047,481.354065c-65.647034,0 -130.31427,0 -195.9617,0c-7.838364,0 -17.636642,-2.93924 -23.515976,-7.838379c-9.79805,-8.818542 -2.939194,-23.515686 9.798309,-26.455017c5.879303,-0.979858 11.757813,0 17.636307,0c126.396027,0 252.791809,0 378.207092,0c58.788818,0 93.081909,-48.990509 72.506226,-101.900238c-11.757935,-28.414429 -41.1521,-46.051086 -74.465698,-43.111572c-26.455078,1.959534 -54.869293,28.414429 -61.727936,54.869141c-2.939331,13.71759 2.939209,38.212891 -22.535675,32.334015c-24.495148,-4.899139 -13.71759,-28.41449 -10.778259,-42.132111c9.797882,-46.050964 53.889374,-81.324127 103.860474,-79.364288c41.1521,1.959381 81.323853,19.596161 98.960449,72.50589c23.515625,69.566528 -24.495239,140.112732 -97.981079,141.09256c-63.687775,0 -128.35495,-0.979828 -194.002533,0c0,-0.979828 0,0 0,0z" class="st1"/>
    <path id="svg_5" d="m344.180786,521.52594c56.828735,0 114.637878,0 171.466675,0c43.111328,0 77.404907,28.414612 80.344849,63.687683c5.87854,58.788635 -29.394531,84.263794 -62.708374,89.162842c-45.070831,6.858582 -80.343994,-19.596313 -89.162537,-66.62738c-0.979584,-7.838379 5.878754,-21.555542 12.737671,-24.495117c11.757721,-4.899109 18.615936,1.959656 20.576202,16.656738c5.87854,33.313721 34.293457,48.990662 60.747711,36.252991c19.596436,-9.797913 27.435425,-27.434631 22.536133,-49.970154c-3.919312,-17.636719 -20.576172,-30.374207 -42.13208,-30.374207c-114.637543,0 -228.295837,0 -342.933716,0c-4.899094,0 -11.757828,1.959778 -14.697144,0c-7.838486,-4.898926 -14.697266,-10.777893 -21.556,-16.656738c6.858734,-5.878784 13.717514,-16.656616 20.57637,-16.656616c33.313217,-1.959717 67.60704,-0.980042 100.920273,-0.980042c27.434601,0 54.869049,0 83.283966,0z" class="st1"/>
    <path id="svg_6" d="m255.017853,406.888489c-29.394409,0 -58.788742,0 -88.183212,0c-12.737167,0 -28.413956,0 -27.434464,-16.656738c0,-15.67688 14.697296,-19.596161 29.394257,-18.616516c56.82901,0 114.63797,0 171.467346,0c25.474976,0 42.131287,-14.697235 44.091705,-38.212555c1.959045,-18.616486 -17.637177,-41.151855 -38.212952,-45.071381c-20.575775,-2.93927 -39.192352,10.778046 -46.051361,34.293427c-0.97995,3.919373 -0.97995,9.798035 -3.918823,12.73761c-4.898895,4.89917 -11.758362,8.818268 -17.636963,12.737549c-4.898895,-6.858551 -12.737274,-12.737549 -13.717621,-19.596283c-2.93869,-41.151825 34.293457,-77.404922 77.405304,-76.425079c38.213013,0.979874 72.506348,33.313507 76.425476,73.485748c2.938751,31.353729 -24.494995,72.50589 -57.80896,78.384735c-25.474854,4.899078 -52.909821,1.959656 -78.384705,1.959656c-8.81839,0.979828 -18.616608,0.979828 -27.435028,0.979828z" class="st1"/>
   </g>
  </g>
 </g>
</svg>