<svg width="90" height="90" xmlns="http://www.w3.org/2000/svg">
 <style type="text/css">.st0{fill:#0074BB;}
	.st1{fill:#FFFFFF;}</style>

 <g>
  <title>background</title>
  <rect fill="none" id="canvas_background" height="92" width="92" y="-1" x="-1"/>
 </g>
 <g>
  <title>Layer 1</title>
  <g id="svg_1">
   <circle id="svg_2" r="44.900002" cy="45" cx="45" class="st0"/>
   <g id="svg_3">
    <path id="svg_4" d="m36,48.2c-6.7,0 -13.3,0 -20,0c-0.8,0 -1.8,-0.3 -2.4,-0.8c-1,-0.9 -0.3,-2.4 1,-2.7c0.6,-0.1 1.2,0 1.8,0c12.9,0 25.8,0 38.6,0c6,0 9.5,-5 7.4,-10.4c-1.2,-2.9 -4.2,-4.7 -7.6,-4.4c-2.7,0.2 -5.6,2.9 -6.3,5.6c-0.3,1.4 0.3,3.9 -2.3,3.3c-2.5,-0.5 -1.4,-2.9 -1.1,-4.3c1,-4.7 5.5,-8.3 10.6,-8.1c4.2,0.2 8.3,2 10.1,7.4c2.4,7.1 -2.5,14.3 -10,14.4c-6.5,0 -13.1,-0.1 -19.8,0c0,-0.1 0,0 0,0z" class="st1"/>
    <path id="svg_5" d="m34.2,52.3c5.8,0 11.7,0 17.5,0c4.4,0 7.9,2.9 8.2,6.5c0.6,6 -3,8.6 -6.4,9.1c-4.6,0.7 -8.2,-2 -9.1,-6.8c-0.1,-0.8 0.6,-2.2 1.3,-2.5c1.2,-0.5 1.9,0.2 2.1,1.7c0.6,3.4 3.5,5 6.2,3.7c2,-1 2.8,-2.8 2.3,-5.1c-0.4,-1.8 -2.1,-3.1 -4.3,-3.1c-11.7,0 -23.3,0 -35,0c-0.5,0 -1.2,0.2 -1.5,0c-0.8,-0.5 -1.5,-1.1 -2.2,-1.7c0.7,-0.6 1.4,-1.7 2.1,-1.7c3.4,-0.2 6.9,-0.1 10.3,-0.1c2.8,0 5.6,0 8.5,0z" class="st1"/>
    <path id="svg_6" d="m25.1,40.6c-3,0 -6,0 -9,0c-1.3,0 -2.9,0 -2.8,-1.7c0,-1.6 1.5,-2 3,-1.9c5.8,0 11.7,0 17.5,0c2.6,0 4.3,-1.5 4.5,-3.9c0.2,-1.9 -1.8,-4.2 -3.9,-4.6c-2.1,-0.3 -4,1.1 -4.7,3.5c-0.1,0.4 -0.1,1 -0.4,1.3c-0.5,0.5 -1.2,0.9 -1.8,1.3c-0.5,-0.7 -1.3,-1.3 -1.4,-2c-0.3,-4.2 3.5,-7.9 7.9,-7.8c3.9,0.1 7.4,3.4 7.8,7.5c0.3,3.2 -2.5,7.4 -5.9,8c-2.6,0.5 -5.4,0.2 -8,0.2c-0.9,0.1 -1.9,0.1 -2.8,0.1z" class="st1"/>
   </g>
  </g>
 </g>
</svg>