<?xml version="1.0" encoding="utf-8"?>
<!-- Generator: Adobe Illustrator 23.0.3, SVG Export Plug-In . SVG Version: 6.00 Build 0)  -->
<svg version="1.1" id="Layer_1" xmlns="http://www.w3.org/2000/svg" xmlns:xlink="http://www.w3.org/1999/xlink" x="0px" y="0px"
	 viewBox="0 0 800 900" style="enable-background:new 0 0 800 900;" xml:space="preserve">
<style type="text/css">
	.st0{fill:url(#SVGID_1_);}
	.st1{fill:url(#SVGID_2_);}
	.st2{fill:#F7DF7E;}
	.st3{fill:#F9E68F;}
	.st4{fill:#FBEDA5;}
	.st5{fill:#A0BE37;}
	.st6{fill:#C09F6A;}
	.st7{fill:#BA9A67;}
	.st8{fill:#98BB39;}
	.st9{fill:#84B23D;}
	.st10{fill:#724F2B;}
	.st11{fill:#5A3F21;}
	.st12{fill:url(#SVGID_3_);}
	.st13{fill:url(#SVGID_4_);}
	.st14{fill:#5E3E1A;}
	.st15{fill:#4D3313;}
	.st16{fill:#947E54;}
	.st17{fill:#AD9061;}
</style>
<title>Base_Tela</title>
<linearGradient id="SVGID_1_" gradientUnits="userSpaceOnUse" x1="400.0528" y1="914.9264" x2="400.0528" y2="426.8632">
	<stop  offset="0" style="stop-color:#559FA0"/>
	<stop  offset="0.5256" style="stop-color:#549D9E"/>
	<stop  offset="0.715" style="stop-color:#509797"/>
	<stop  offset="0.8499" style="stop-color:#4A8B8C"/>
	<stop  offset="0.9583" style="stop-color:#427B7B"/>
	<stop  offset="1" style="stop-color:#3D7272"/>
</linearGradient>
<rect x="0" y="426.9" class="st0" width="800.2" height="474"/>
<linearGradient id="SVGID_2_" gradientUnits="userSpaceOnUse" x1="400.0528" y1="431.6181" x2="400.0528" y2="-8.756515e-02">
	<stop  offset="0" style="stop-color:#B1D8F5"/>
	<stop  offset="0.1407" style="stop-color:#A6D2F2"/>
	<stop  offset="0.3848" style="stop-color:#8AC3EB"/>
	<stop  offset="0.7008" style="stop-color:#5CABDE"/>
	<stop  offset="1" style="stop-color:#2B90D1"/>
</linearGradient>
<rect x="0" y="-0.1" class="st1" width="800.2" height="431.7"/>
<path class="st2" d="M799.6,900.8V641.5l-260.8-7.7c0,0-23.1-5.6-26.5-6.2c-3.4-0.6-9.6-0.6-12.9-2.8c-3.4-2.3-16.9-4.5-19.7-5.6
	c-2.8-1.1-6.8-6.8-10.7-9c-3.9-2.3-11.8-9.6-14.6-12.9c-2.8-3.4-8.4-14.1-9-16.3c-0.6-2.3-2.8-12.4-2.8-12.4v-20.3l-3.4-9.6
	l-1.3-2.1l4.2-12.2l-4.6-3.8l-17.5-3.9l-10.1-5.1c0,0-9-3.9-10.7-3.9c-1.7,0-33.2-10.7-33.2-10.7l-30.7-11.2l-28.5-5.2
	c0,0-43.4-11.2-45.7-11.2c-2.2,0-33.7-9-35.9-9.7c-2.2-0.7-32.2-6.7-32.2-6.7l-38.9-4.5l-5.2-1c-2.6,6-8.2,10.6-16.8,10.5
	c-31.8-0.6-67.8-6.5-97.6-17.5c-6-2.2-9.8-6.4-11.7-11.2c-3.9,0.3-6.5,0.5-6.5,0.5s-9.2-0.3-12.7,1.5c-1.2,0.6-2.6,1-3.9,1.2v468.5
	H799.6z"/>
<path class="st3" d="M454.3,595.9c-2.8-3.4-8.4-14.1-9-16.3c-0.6-2.3-2.8-12.4-2.8-12.4v-20.3l-3.4-9.6l1.1-5.6l3.4-8.4l-6.2-3.9
	l-10-2.3c-1.2,2.8-2.5,5.6-4.1,8.2c-20.2,34.4-65.5,46.2-100,26.2c-18.2-10.6-34.2-24.5-50-38.4c-1.7-1.5-3.4-3-5.2-4.5
	c-0.3-0.2-0.5-0.3-0.7-0.5c-0.8-0.5-1.7-1-2.6-1.6c-4-0.3-9.9-0.9-11.4-1c-4.9-0.2-9.8-0.3-14.7-0.4c-9.8-0.2-19.6-0.2-29.4-0.2
	c-21.5,0-43-1.5-64.3-3.6c-27.8-2.7-55.5-6.4-83.2-10.2c-2.9-0.4-26.6-2.6-22.4-2.5c-5-0.3-10-0.6-15.1-0.8
	c-8.5-0.4-16.8-1-24.9-1.8v414.7h165.7c9.5-13.5,16.2-30.2,31.1-38c11.2-5.8,21-6,27.4-17.2c6.2-10.9,14.8-20,25.6-26.6
	c21.4-13.1,41.2-28.1,61.7-42.6c7.1-5,14.2-10,21.4-14.9c0.2-1.4,0.5-2.8,1-4.3c3.6-11,9.1-20.5,19.5-26.4c3.6-2,3.3-10.4,5.9-17.9
	c5.6-15.8,15.4-22.3,28-27.9c0.2-0.4,0.4-0.8,0.6-1.3c2.1-4.9,6.4-9.3,10.6-11.8c1.7-1,3.5-1.7,5.3-2.3c1.1-10.8,8.2-20.8,21.2-22.2
	c2.2-7.4,7.5-13.7,15.9-16.1c2.3-2.5,4.6-4.8,7-7c2.6-4.2,6.5-7.6,11.6-9.5c3.1-2.2,6.2-4.3,9.5-6.1
	C464.9,606.5,457.1,599.3,454.3,595.9z"/>
<path class="st4" d="M454.3,595.9c-2.8-3.4-8.4-14.1-9-16.3c-0.6-2.3-2.8-12.4-2.8-12.4v-20.3l-3.4-9.6l1.1-5.6l3.4-8.4l-6.2-3.9
	l-17.5-3.9l-10.1-5.1c0,0-9-3.9-10.7-3.9c-1.7,0-33.2-10.7-33.2-10.7l-30.7-11.2l-28.5-5.2c0,0-43.4-11.2-45.7-11.2
	c-2.2,0-33.7-9-35.9-9.7c-2.2-0.7-32.2-6.7-32.2-6.7L154,447l-5.2-1c-2.6,6-8.2,10.6-16.8,10.5c-31.8-0.6-67.8-6.5-97.6-17.5
	c-6-2.2-9.8-6.4-11.7-11.2c-3.9,0.3-6.5,0.5-6.5,0.5S7,428,3.5,429.8c-1.2,0.6-2.6,1-3.8,1.2v406.9c2.2-1.2,4.3-2.3,4.9-2.6
	c28-16,53.8-20.6,83.4-23.5c8.1-11,16.2-22.2,26.1-31.6c24-22.8,59.3-34.4,91.3-40.7c19-3.8,37.9-5.3,56.8-6.4
	c14.1-13,31-22.9,49.5-28.7c13-9.7,27.8-16.8,43.4-21c0.9-0.6,1.8-1.1,2.8-1.6c5.3-5.8,10.7-11.5,16.2-16.8
	c15.2-19.8,36.1-35.2,60-43.7c9.6-6.4,20.1-11.5,31.2-15.2C461.2,603,456.4,598.4,454.3,595.9z"/>
<path class="st2" d="M181.5,551.5c0.3-0.3,0.7-0.7,1-1c1.3-1.3,2.7-2.6,4.1-3.9c-4.8,0.7-9.6,1.4-14.3,2.2c1.5,0.6,2.9,1.3,4.3,2.1
	C178.2,551,179.8,551.2,181.5,551.5z"/>
<path class="st5" d="M437.4,519.3l-17.5-3.9l-10.1-5.1c0,0-9-3.9-10.7-3.9c-1.7,0-33.2-10.7-33.2-10.7l-30.7-11.2l-28.5-5.2
	c0,0-43.4-11.2-45.7-11.2c-2.2,0-33.7-9-35.9-9.7c-2.2-0.7-32.2-6.7-32.2-6.7L154,447l-18.7-3.7c0,0-7.5-3-10.5-3s-18-3-18-3l-9-4.5
	l-10.7-2.6c0,0-9.1,1-11.4-0.5c-2.2-1.5-20.2-3.4-25.4-4.9c-5.2-1.5-20.5,0.4-20.5,0.4s-18.7-1-30.2-0.8v321.4l26-19.5l57.6-17.2
	l54-3.6l54.8-10c0,0,20-7.3,26.6-9.3c6.7-2,54-34,58.6-37.3c4.7-3.3,48.6-56,52.6-67.3c4-11.3,6-9.3,6-9.3s0.3-0.8,0.7-2.2
	c0.9-0.1,1.7-0.2,2.6-0.4c13.1-2.4,16.6-15.5,34.5-15.5c17.8,0,21.4-17.8,32.1-21.4s37.8-9.7,37.8-9.7L437.4,519.3z"/>
<path class="st6" d="M454.3,595.9c-2.8-3.4-8.4-14.1-9-16.3c-0.6-2.3-2.8-12.4-2.8-12.4v-20.3l-3.4-9.6l1.1-5.6l3.4-8.4l-6.2-3.9
	l-3-0.7c-14.4,2.1-30,0.4-44.9-4.2c-2,2.5-4.4,4.9-7.3,7.1c-5.5,4.3-11.4,8.5-17.5,12.4c-10.4,21.8-29.6,34.6-51.4,47.7
	c-5.8,3.5-1.8-1.6-4.6,2.8c-3.1,4.9-5.9,10.3-9.4,15c-12.3,16.4-25,26.9-43.2,35.9c-8.7,4.3-2.4-3.1-7.3,5.1
	c-3.1,5.1-5.9,10.4-8.9,15.6c-8.7,15.2-31.9,17.6-45.1,29.2c-4,3.5-9.2,5.4-15.3,6.3c-3.3,2.4-7.4,3.8-12.4,4.2
	c-2.3,1.3-4.7,2.3-7.2,3.1c1.1,0.5,2.2,1.1,3.2,1.8c0.2-0.1,0.3-0.1,0.5-0.2c3.3-0.9,7.1-1.2,10.8-0.6c10.2-3.3,20.8-5.4,31.9-6
	c12.6-4.7,26-7.4,40-7.8c2.5-0.9,5-1.7,7.6-2.4c19.6-17,44.2-28.3,71.1-31c6.3-3,12.9-5.4,19.7-7.3c8.2-5.2,17.8-8.8,29.2-11.3
	c1.9-1.2,3.8-2.3,5.7-3.4c4.1-8,11.7-14.1,22.9-15c4.8-4.4,11.4-7.2,19.8-7.2c2,0,3.9,0.2,5.7,0.5c4.3-1.3,8.7-2.4,13.1-3.2
	c2.5-0.5,4.9-0.8,7.3-1c3.4-1.4,6.8-2.9,10.1-4.4C456.9,598.7,455.3,597.1,454.3,595.9z"/>
<path class="st7" d="M440.2,531.7l3.4-8.4l-6.2-3.9l-3-0.7c-14.4,2.1-30,0.4-44.9-4.2c-2,2.5-4.4,4.9-7.3,7.1
	c-5.5,4.3-11.4,8.5-17.5,12.4c-10.4,21.8-29.6,34.6-51.4,47.7c-5.8,3.5-1.8-1.6-4.6,2.8c-3.1,4.9-5.9,10.3-9.4,15
	c-12.3,16.4-25,26.9-43.2,35.9c-8.7,4.3-2.4-3.1-7.3,5.1c-3.1,5.1-5.9,10.4-8.9,15.6c-8.7,15.2-31.9,17.6-45.1,29.2
	c-4.2,3.7-9.7,5.6-16.2,6.4c-3.3,1.9-6.8,3.5-10.4,4.7c6.5,1.3,13.2,2.2,19.8,1.6c6.1-0.6,12.4-7.4,17.8-10.2
	c10-5.2,20.5-8.3,30.9-12.5c8-3.2,14.1-10.8,22.3-14.5c8.8-4,15.6-7.9,23.3-13.7c1.5-1.2,9.3-10.1,6.7-5.7
	c3.1-5.3,7.5-9.2,12.4-11.9c4.1-4,9.1-6.2,14.4-6.9c10.1-6.7,22-9.9,30.9-17c4.3-3.4,8.7-5.9,13.2-7.4c5.8-4.3,13-5.8,20.1-5.2
	c1.5-1.9,3-3.8,4.5-5.9c7.8-10.7,18.1-16.5,29.5-16.5c4.5-2.3,9.2-3.9,13.8-4.5c2.7-2.8,6-4.8,9.5-6.3c1.6-1.3,3.3-2.6,5.1-3.8v-9
	l-3.4-9.6L440.2,531.7z"/>
<path class="st8" d="M437.4,519.3l-17.5-3.9l-10.1-5.1c0,0-9-3.9-10.7-3.9s-33.2-10.7-33.2-10.7l-30.7-11.2l-28.5-5.2
	c0,0-43.4-11.2-45.7-11.2c-2.2,0-33.7-9-35.9-9.7c-2.2-0.7-32.2-6.7-32.2-6.7L154,447l-18.7-3.7c0,0-7.5-3-10.5-3s-18-3-18-3l-9-4.5
	h-9.7c0,0-9.7,1.5-12,0c-2.2-1.5-16.5-3.5-21.8-5s-24.5-2.6-24.5-2.6s-18.7-1-30.2-0.8v235c2.4-1.3,4.3-2.3,5.5-2.8
	c8.3-3.6,17.8-17.8,28.5-20.2c10.7-2.4,8.3-5.9,23.8-5.9s58.3-8.3,69-11.9c10.7-3.6,15.5,5.9,27.3,5.9c11.9,0,38.1,3.6,49.9,7.1
	c11.9,3.6,25,7.1,40.4-2.4s15.5-21.4,25-26.2s21.4-20.2,32.1-28.5c10.7-8.3,25-2.4,38.1-4.8c13.1-2.4,16.6-15.5,34.5-15.5
	c17.8,0,21.4-17.8,32.1-21.4c10.7-3.6,37.8-9.7,37.8-9.7L437.4,519.3z"/>
<g>
	<path class="st9" d="M373,524.7c0.8-4.9,4-8,7.8-9.5c0,0,0-0.1,0-0.1c0,0,0,0,0,0c-6,0-10.3-2.6-12.9-6.3
		c-9.6-2.6-16.6-1.5-26.8,0.5c-1,0.2-2.1,0.4-3.2,0.6c-2.8,3.4-6.5,6.1-11.1,7.7c4.4,4.2,21.8,13.4,33.9,14.9
		C365.4,530.1,369.5,527.6,373,524.7z"/>
	<path class="st9" d="M439.5,520.7c-2,0.7-4.1,1.1-6.5,1.1c-1.7,0-3.3-0.2-4.8-0.6c-1,0.1-1.9,0.2-3,0.2c-0.1,0-0.1,0-0.2,0
		c-3,2.4-6.9,4-11.8,4c-1.7,0-3.3-0.2-4.8-0.6c-1.4,2.6-4,4.6-7.8,4.8c-0.7,0.9-1.6,1.7-2.7,2.2c-1.4,0.7-2.8,1.4-4.2,2.1
		c-0.9,0.4-1.8,0.7-2.7,0.9c-0.9,1.5-2.1,2.9-3.6,4c-2.7,2-5.8,3.4-9.1,4.4c-4.9,4.7-11.6,6.9-19.1,7.2c-3.8,1.6-7.5,3.3-10.9,5.7
		c-2.5,1.7-5,2.8-7.5,3.6c-0.7,1.2-1.8,2.1-3.1,2.8c-0.4,0.6-0.8,1.3-1.3,1.9c-4.5,5.3-10.4,7-16.4,9.2c0.4-0.1-1.6,0.9-2.4,1.3
		c-1.1,0.7-2.2,1.5-3.4,2.1c-2.2,1.1-4.2,1.9-6.2,2.5c0,0,0,0,0,0c9-1.7,21.6-8,31.2-9.8c13.1-2.4,16.6-15.5,34.5-15.5
		c17.8,0,21.4-17.8,32.1-21.4c10.7-3.6,37.8-9.7,37.8-9.7L439.5,520.7z"/>
	<path class="st9" d="M284.7,525c0-0.3,0-0.6-0.1-0.9c-3.2,1.4-6.6,2.6-10.4,3.2c-20.3,3.7-39.1-2.4-53.3-15.2
		c-0.5-0.1-1.1-0.1-1.6-0.2c-13.7-1.1-26.3-3.2-39-8.5c-20.6-8.5-42.4-21.4-64.8-24.9c-2.9-0.5-5.3,0.5-10.2,4
		c7.5-5.5-2.5,7.3-4.4,10.7c-8.1,14.8-16.4,29.4-30.6,38.7c-0.4,3.2-11,7.1-11.4,10.3c-0.3,1.2-4,1-4.4,2.2c0.1,1.4,10,3.3,9.9,4.8
		c0,0.8,7.6,2.9,7.6,3.7c3.2,3.3,11.8,0,14.8,3.4c14,7.6,30-0.5,48.7,11.7c10.1,3.2,15.9,9.1,26.5,6.4c20.8-5.4,26.3,5.2,47.7,3.2
		c8-0.8,26.6-13.9,35-18c1.8-2.3,10.7-4.3,12.7-6.4c2.6-2.7,10.3-4.5,13.8-5.3c6-12,10.8-10.3,21.2-18.8
		C291.9,525.9,285.1,528,284.7,525z"/>
</g>
<g>
	<path class="st9" d="M373,524.7c0.8-4.9,4-8,7.8-9.5c0,0,0-0.1,0-0.1c0,0,0,0,0,0c-6,0-10.3-2.6-12.9-6.3
		c-9.6-2.6-16.6-1.5-26.8,0.5c-1,0.2-2.1,0.4-3.2,0.6c-2.8,3.4-6.5,6.1-11.1,7.7c4.4,4.2,21.8,13.4,33.9,14.9
		C365.4,530.1,369.5,527.6,373,524.7z"/>
	<path class="st9" d="M439.5,520.7c-2,0.7-4.1,1.1-6.5,1.1c-1.7,0-3.3-0.2-4.8-0.6c-1,0.1-1.9,0.2-3,0.2c-0.1,0-0.1,0-0.2,0
		c-3,2.4-6.9,4-11.8,4c-1.7,0-3.3-0.2-4.8-0.6c-1.4,2.6-4,4.6-7.8,4.8c-0.7,0.9-1.6,1.7-2.7,2.2c-1.4,0.7-2.8,1.4-4.2,2.1
		c-0.9,0.4-1.8,0.7-2.7,0.9c-0.9,1.5-2.1,2.9-3.6,4c-2.7,2-5.8,3.4-9.1,4.4c-4.9,4.7-11.6,6.9-19.1,7.2c-3.8,1.6-7.5,3.3-10.9,5.7
		c-2.5,1.7-5,2.8-7.5,3.6c-0.7,1.2-1.8,2.1-3.1,2.8c-0.4,0.6-0.8,1.3-1.3,1.9c-4.5,5.3-10.4,7-16.4,9.2c0.4-0.1-1.6,0.9-2.4,1.3
		c-1.1,0.7-2.2,1.5-3.4,2.1c-2.2,1.1-4.2,1.9-6.2,2.5c0,0,0,0,0,0c9-1.7,21.6-8,31.2-9.8c13.1-2.4,16.6-15.5,34.5-15.5
		c17.8,0,21.4-17.8,32.1-21.4c10.7-3.6,37.8-9.7,37.8-9.7L439.5,520.7z"/>
	<path class="st9" d="M284.7,525c0-0.3,0-0.6-0.1-0.9c-3.2,1.4-6.6,2.6-10.4,3.2c-20.3,3.7-39.1-2.4-53.3-15.2
		c-0.5-0.1-1.1-0.1-1.6-0.2c-13.7-1.1-26.3-3.2-39-8.5c-20.6-8.5-42.4-21.4-64.8-24.9c-2.9-0.5-5.3,0.5-10.2,4
		c7.5-5.5-2.5,7.3-4.4,10.7c-8.1,14.8-16.4,29.4-30.6,38.7c-0.4,3.2-11,7.1-11.4,10.3c-0.3,1.2-4,1-4.4,2.2c0.1,1.4,10,3.3,9.9,4.8
		c0,0.8,7.6,2.9,7.6,3.7c3.2,3.3,11.8,0,14.8,3.4c14,7.6,30-0.5,48.7,11.7c10.1,3.2,15.9,9.1,26.5,6.4c20.8-5.4,26.3,5.2,47.7,3.2
		c8-0.8,26.6-13.9,35-18c1.8-2.3,10.7-4.3,12.7-6.4c2.6-2.7,10.3-4.5,13.8-5.3c6-12,10.8-10.3,21.2-18.8
		C291.9,525.9,285.1,528,284.7,525z"/>
</g>
<path class="st10" d="M355.9,451.3l-0.2-16.5h-10.4l2.9,3.9c0,0.7-0.1,4.7-0.4,23c-0.3,19.6-1.1,42.3-1.2,51.4
	c0,3.2,5.8-0.8,5.8-0.8l2.7,1.2l4.6,1.9l-2.4-5.8L355.9,451.3z"/>
<polygon class="st11" points="355.9,451.3 355.7,435.5 353.8,435.5 354.7,479.6 353.2,512.7 355.1,513.5 359.7,515.4 357.3,509.6 
	"/>
<linearGradient id="SVGID_3_" gradientUnits="userSpaceOnUse" x1="218.3667" y1="569.9661" x2="252.276" y2="412.0759">
	<stop  offset="0" style="stop-color:#FFFFFF"/>
	<stop  offset="0.3587" style="stop-color:#FDFDFD"/>
	<stop  offset="0.5538" style="stop-color:#F5F5F5"/>
	<stop  offset="0.7096" style="stop-color:#E7E7E7"/>
	<stop  offset="0.8447" style="stop-color:#D4D4D4"/>
	<stop  offset="0.9652" style="stop-color:#BBBBBB"/>
	<stop  offset="1" style="stop-color:#B2B2B2"/>
</linearGradient>
<path class="st12" d="M286.4,455l-53.3-37.3L183,469.6l2.9,91.5l19.2-6.7c3-0.2,5.6-0.9,8.4-2.2c0.9-0.4,3.4-1.5,3.4-1.5
	c3.4-0.2,6.2-1,9.3-2.6c1-0.6,2-1.3,2.9-2.1l2.2-0.8c1.3,0.6,2.8,0.9,4.3,1.1c8.7,1.1,17-2.4,23.5-8c0.8-0.7,1.4-1.6,1.9-2.5
	c1.2,0.5,2.5,0.8,3.9,0.8h0.9c4.6,0,8.6-3,10.3-7l8.6-3L286.4,455z"/>
<linearGradient id="SVGID_4_" gradientUnits="userSpaceOnUse" x1="133.3914" y1="567.338" x2="121.735" y2="461.3715">
	<stop  offset="0" style="stop-color:#B0B0AF"/>
	<stop  offset="0.3753" style="stop-color:#AEAEAD"/>
	<stop  offset="0.5795" style="stop-color:#A6A6A5"/>
	<stop  offset="0.7426" style="stop-color:#989897"/>
	<stop  offset="0.883" style="stop-color:#858584"/>
	<stop  offset="1" style="stop-color:#6E6E6E"/>
</linearGradient>
<path class="st13" d="M185.9,561l-2.9-91.5l-3.9-9.9l-113.4,4.7l3.9,71.1l5.7-0.5c0.6,0.5,1.3,1,2,1.4c3.2,1.7,7.3,2,10.5,3.4
	c3.2,4.1,7.1,6.6,13.6,5.4c4-0.7,3.4-0.2,7.5,1.1c3.4,1.1,6.6,1.2,9.9,0.6c1.9,1.8,4.5,2.9,7.2,2.9c0.1,0,0.1,0,0.1,0.1
	c2.8,0.9,5.7,0.4,8.1-0.9l3.1,0.7c0.8,0.9,1.6,1.6,2.7,2.2c5.2,2.6,10.4,3.3,16,2.3L185.9,561z"/>
<polygon class="st14" points="53.6,469.2 114,411 236.6,410.9 302.8,457.9 286.3,457.8 286.4,455 233.2,417.7 168.8,486.6 "/>
<polygon class="st15" points="302.8,457.9 236.6,410.9 233.2,417.7 286.4,455 286.3,457.8 "/>
<path class="st14" d="M165.5,501.5l-23.9-2.7l2,54.4c4.1,1.4,8.2,1.7,12.6,0.8l11.3,2.7L165.5,501.5z"/>
<path class="st15" d="M144.2,501.7l21.4,1.8l-0.1-2l-23.9-2.7l2,54.4c0.7,0.2,1.4,0.4,2.1,0.6L144.2,501.7z"/>
<path class="st16" d="M427.2,533.9c0,0-1,10-1,11.4s0.5,7.6,0.5,7.6s0,11.4,0.5,13.8c0.5,2.4,0,4.3,0,4.3l-1.6,6.1
	c0,0-2.2-16.6-2.2-20.8s-0.5-4.3-0.5-6.2c0-1.9-0.6-10.5,0.8-13.4C425.2,533.9,427.2,533.9,427.2,533.9z"/>
<path class="st16" d="M387,553.9c0.3,1.5,0.2,3.8,0.2,5.7c0,1.2,0.1,2.3,0.2,2.9c0.5,1.4,0.5,5.1,0.5,5.1s-1.5,7.2-1.5,8.6
	c0,1.2-1.8,7.9-1.5,10.9c0.1,0.6-0.2,4.9,0,5.2c1,1.4,0,5.2,0,6.6c0,1.4,0.5,5.1,0.5,5.1s4.3-20.5,4.3-22.4c0-1.9,0,0,0-5.7
	c0-5.7,0-10,0-10l-2.6-10.5L387,553.9z"/>
<path class="st16" d="M409.5,537.8l-5.1,1.6c1.4,4.3-1.6,4.1-0.2,7c1.4,2.9-0.8,12.1-0.8,12.1l2.2-9.3l1.9-4.3L409.5,537.8z"/>
<polygon class="st16" points="408.2,579 408.2,588.6 406.3,591.4 409.6,583.8 410.1,579.5 408.7,572.9 "/>
<path class="st16" d="M362.7,578.3l-2.9,11l-1,9.1c0,0,0.5,1,0.5,3.3c0,2.4,0,6.2,0,6.2s5.2-10,5.2-11.4c0-1.4,0.5-4.8,1-7.6
	c0.5-2.9,0.5-6.7,0.5-8.1c0-1.4,1-4.8,1-7.1c0-2.4-1.4-7.6-1.4-7.6l-0.7-4.9l-0.3,11.1L362.7,578.3z"/>
<path class="st16" d="M345.3,578.9c0,0,0.5,8.1,0.5,9.5s-1.4,7.6-1.4,7.6l0.5,5.7l0.5,5.2l3.3-10v-6.7v-6.2v-5.7v-7.1L345.3,578.9z"
	/>
<path class="st16" d="M321.5,600.1v7.6c0,0,0,6.2,0.5,8.6c0.5,2.4,0,6.2,0,6.2l-1.4,3.3l-2.9,3.8c0,0,0-16.7,1-18.1
	c1-1.4,1-5.2,1-5.2l-0.5-7.6c0,0-1.1-7.1,0.3-8.5c1.4-1.4,2.1-2,2.1-2V600.1z"/>
<path class="st16" d="M286.7,628.3v10.9l1,4.3v5.8l-2.4,8.5c0,0-2.4-19.8-2.4-21.7c0-1.9,0-6.6,0-6.6l-0.2-4.5L286.7,628.3z"/>
<polygon class="st16" points="304.1,613.1 303.6,621.8 304.3,643.1 305.5,631.7 306.5,617.4 304.6,607.9 "/>
<path class="st16" d="M253.4,657.9v7.5l0.5,4.6l-1.1,5.5c0,0,2.5-9.4,2.5-10.7s0-3.3,0-4.6s0.5-5.5,0.5-5.5l-0.5-4.9L253.4,657.9z"
	/>
<path class="st16" d="M268.1,644.6l-1.4,7.5l-0.1,9.6c0,0,2.5-10,3.4-11.4c1-1.3,0-5.8,1.4-6.2c1.4-0.4-0.1-8.8-0.1-8.8l-3,0.3
	L268.1,644.6z"/>
<path class="st17" d="M419,537.2c-0.3,1.4-1.9,10.3-1.7,13.9c0.3,3.6,2.5,8.9,3.1,10.5s0.3,8.6,0.6,11.4c0.3,2.8,3.3,7.8,3.6,9.4
	c0.3,1.7,1.6-7.7,1.6-7.7l-2.1-25.3l2.1-15.2L419,537.2z"/>
<polygon class="st17" points="401,542.7 401.8,549.4 402.9,558.3 404,560.5 404.3,553 405.1,546.6 405.7,543.8 404.6,538.8 "/>
<path class="st17" d="M383.5,557.1v9.4l1.1,10.5l-1.1,8.6c0,0,0.3,5.5,0.6,7.5c0.3,1.9-0.8,1.1,0,5.5c0.8,4.4,0.8,6.4,0.8,6.4
	s0-1.4,0,1.9s-0.8,4.4-0.8,4.4s1.7-10.8,1.7-11.9c0-1.1,0-16.9,0-16.9l3.1-15l-1.3-5.2l-0.5-8.6L383.5,557.1z"/>
<path class="st17" d="M361.3,566l-2.5,8.3l-1.7,3.9c0,0,0.3,2.2,1.1,2.2c0.8,0,0.6,1.4,1.4,2.8s-1,9.6-1,9.6l0.7,8.8l3.9-13.2
	c0,0,0-6.4,0-7.5c0-1.1,2.2-6,2.2-7.9c0-1.9,0-8.7,0-8.7l-0.6-3.6L361.3,566z"/>
<path class="st17" d="M343.6,573.8l0.3,10.3c0,0-3.3,12.2-2.5,13.6s1.9,3.6,1.9,6.1s-0.3,2.5-0.6,5.3c-0.3,2.8-0.8,8.6-0.8,8.6
	s-0.8,0.3-0.6,2.8c0.3,2.5,3.1-8.3,3.3-10c0.3-1.7,1.4-5.3,1.4-8.3c0-3.1-0.3-9.2,0-10.8s-0.6-5.8-0.6-8.6c0-2.8,2.9-10.4,2.9-10.4
	L343.6,573.8z"/>
<path class="st17" d="M317.2,593.2l-0.6,7.2c0,0-0.6,6.1-0.3,8.3s-0.8,7.2-0.8,9.4c0,2.2-0.6,8.6-0.6,10.3c0,1.7,2.2,9.7,2.2,9.7
	v4.4l-1.1,2.8c0,0,3.3-7.8,2.8-9.7c-0.6-1.9-1.4-7.5-1.4-8.3s1.1-13.9,1.1-13.9l1.7-8.3l-0.6-8.3l0.8-5.5v-2.5L317.2,593.2z"/>
<path class="st17" d="M303.1,610.1l-0.6,10.8l1.9,10c0,0-0.8,10.8-0.6,13s0.6-26.1,0.6-26.1l0.6-5.3l-1.1-6.9L303.1,610.1z"/>
<path class="st17" d="M283.9,629c0,0,0.8,10.4,1.1,12c0.3,1.6-1.1,5.4-0.8,6.4c0.3,0.9,1.7,4.3,1.9,5.9c0.3,1.6,0.3,4.3,0.3,5.7
	s-1.7,2.7-1.7,2.7s-2.2-10.7-2.5-12.5c-0.3-1.8-1.7-4.1-0.3-10c1.4-5.9,0.3-9.3,0.3-10.2s0-4.3,0-4.3L283.9,629z"/>
<path class="st17" d="M268.4,635.6c0,0,0.3,3.6,0.3,4.4s0.6,6.4,0.6,6.4s-1.4,3.6-1.4,4.4s-0.6,10.8-0.6,10.8l-1.1,8.8l-1.4-11.1
	l0.8-5.7l1.1-1.6l-0.8-8.2v-5.2l1.1-3.3L268.4,635.6z"/>
<path class="st17" d="M251.7,650l-0.8,6.8c0,0,0,3.2,0,4c0,0.8,0.6,12.5,0.6,12.5l0.6,5.1l1.8-8.4c0,0-0.4-5.2-0.1-6.2
	c0.3-0.9,0.6-7,0.6-8s1-6.1,1-6.1l-0.5-3.6L251.7,650z"/>
<path class="st17" d="M374.6,579.9l-1.1,11.9c0,0,0.3,7.5,0.3,8.6c0,1.1,0.3,7.2,0.3,7.2s2.8-13.6,2.8-14.4s0-7.2,0-8.9s0-4.2,0-6.1
	s-1.4-10.8-1.4-10.8L374.6,579.9z"/>
<polygon class="st17" points="333.8,589 332.7,598.5 333.3,603.5 331.6,588.2 332.5,582.4 333.3,580.7 "/>
</svg>
