<?xml version="1.0" encoding="utf-8"?>
<!-- Generator: Adobe Illustrator 23.0.3, SVG Export Plug-In . SVG Version: 6.00 Build 0)  -->
<svg version="1.1" id="Layer_1" xmlns="http://www.w3.org/2000/svg" xmlns:xlink="http://www.w3.org/1999/xlink" x="0px" y="0px"
	 viewBox="0 0 800 900" style="enable-background:new 0 0 800 900;" xml:space="preserve">
<style type="text/css">
	.st0{fill:#E2E2E2;}
</style>
<g>
	<path class="st0" d="M243,133.7c0,0,8.2-13.4,19.4-13.2c11.2,0.2,14.8,8.5,25.6-2.3c10.9-10.9,18-1.1,27.2-3.9
		c12.5-3.7,10.5-31.2,23.3-31.1c13.2,0.2,10.2,12.4,25,17.1s10.8-45.8,25.5-48.9c14.8-3.1,16.3,21.8,17.9,29.5
		c1.6,7.8,10.9,25.6,21.8,12.4c10.9-13.2,11-17.3,23.3-17.1c14.8,0.2,16.3,30.3,24.9,30.3s6.2-14.8,14-14.8s6.2,15.5,19.4,15.5
		s9.2-3.1,22.6-3.1c13.4,0,24.5,6.2,33.8,29.5H243z"/>
	<path class="st0" d="M548.2,249c-4.1-4.1-15.9-15.1-25.2-17.5c-11.4-3-22.9,6.1-37.3,4.6s-9.9-41.6-29-41.6s-16,39.3-22.9,43.1
		c-6.9,3.8-15.2-13-23.6-13s-15.2,16.9-22.9,17.7c-7.6,0.8-11.4-6.3-26.7-5.5c-10.8,0.5-16.9,7.9-19.7,12.2H548.2z"/>
	<path class="st0" d="M726,193.1c-5.3-6.5-16.5-18.3-28.6-18.3c-16.7,0-22.5,10-30.9,8.3c-8.3-1.7-19.2-22.5-31.7-22.5
		s-20,22.5-26.7,22.5s-21.7-9.2-27.5-9.2c-5.8,0-15,15.8-23.4,15.8c-8.3,0-15.8-7.5-29.2-7.5c-10.3,0-17.1,7.4-19.7,10.8H726z"/>
</g>
</svg>
