<?xml version="1.0" encoding="utf-8"?>
<!-- Generator: Adobe Illustrator 23.0.3, SVG Export Plug-In . SVG Version: 6.00 Build 0)  -->
<svg version="1.1" id="Layer_1" xmlns="http://www.w3.org/2000/svg" xmlns:xlink="http://www.w3.org/1999/xlink" x="0px" y="0px"
	 viewBox="0 0 800 900" style="enable-background:new 0 0 800 900;" xml:space="preserve">
<style type="text/css">
	.st0{fill:#F2CD11;}
	.st1{fill:#F8DB06;}
	.st2{fill:#FFEC00;}
</style>
<g>
	<circle class="st0" cx="116.5" cy="117.8" r="75.5"/>
	<path class="st1" d="M192,117.8c0-14.7-4.3-28.3-11.5-39.9c-11.7-8.2-26-13-41.4-13c-40.1,0-72.7,32.5-72.7,72.7
		c0,18.9,7.3,36.1,19.2,49.1c9.4,4.2,19.9,6.7,30.9,6.7C158.2,193.3,192,159.5,192,117.8z"/>
	<path class="st2" d="M104.8,148.7c0,17.6,7.8,33.3,20.1,44.1c37.7-4.2,67.1-36.1,67.1-75c0-7.6-1.1-14.9-3.2-21.7
		c-7.7-3.7-16.3-5.9-25.5-5.9C131,90.2,104.8,116.4,104.8,148.7z"/>
</g>
</svg>
