<?xml version="1.0" encoding="utf-8"?>
<!-- Generator: Adobe Illustrator 23.0.3, SVG Export Plug-In . SVG Version: 6.00 Build 0)  -->
<svg version="1.1" id="Layer_1" xmlns="http://www.w3.org/2000/svg" xmlns:xlink="http://www.w3.org/1999/xlink" x="0px" y="0px"
	 viewBox="0 0 800 900" style="enable-background:new 0 0 800 900;" xml:space="preserve">
<style type="text/css">
	.st0{fill:#F0F5E5;}
	.st1{fill:#C3D1D8;}
	.st2{fill:#599A9C;}
</style>
<g>
	<path class="st0" d="M801.6,637.7l-314.8-16.1L459,599.1c-3.1,6.2-9,15.5-10.6,20.2s-0.6,11.4-0.6,11.4s0.6,5.5-4.6,12.7
		c-5.1,7.2-15.4,10.3-21.3,20.3c-5.9,10,3.1,20.8-18.3,33.5c-21.5,12.7-15.8,14.4-18,24.4c-3.6,16.4-11.4,11.7-21.3,21.1
		s0.3,15.5-9.5,29.5c-9.8,14-12,5.2-21.6,14.1c-9.6,8.9-0.9,19.8-13.6,33.8c-9.4,10.4-27.9,2-36.9,14.4c-9,12.4-0.6,15.6-11.8,30.8
		c-11.2,15.2-14.4,8-27.7,20.1c-5.1,4.6-6.2,9.7-6.4,15.1h564.7V637.7z"/>
	<path class="st1" d="M801.6,638.8l-327.4-26.1L459,599.1c0,0,0.2,13.4-0.2,18.5c-0.5,5.1-3.1,13.6-7.5,18.7
		c-4.4,5.1-0.6,12.3-4.3,17.3c-3.8,5-14.6,16.9-17.5,30.6c-2,9.1-12.4,9.1-16.2,18.7c-3.3,8.3-1.4,10.5-4.7,19.1
		c-3.4,8.7-11.1,5.6-11.1,19.6c0,14,3.2,11.3-6.8,21.4c-10.1,10.2-13.7,3.4-21.3,17.3c-9.5,17.3-0.5,18.5-7.5,30.1
		c-6,10-12.8,5.5-20.9,16.9c-6.7,9.3,3,12.7-6.5,30.5c-9.5,17.8-16.2,7.3-21.3,17.8c-4.2,8.7-0.6,18.4-3.9,24.8h492.5V638.8z"/>
	<path class="st2" d="M801.6,604.9l-340.1-5.7c1,5.2,3.5,22.1-2.1,35.8c-2.7,6.6,2.5,13.2-2.9,24.6c-2.9,6.1-10.4,7.3-12.1,18.2
		c-1.7,10.9,6.7,22.9-2.2,34.3c-8.9,11.4-12.3,20.3-13,26.7s7.2,22.6-0.3,35.6c-8.7,15-19.2,10-26.8,28.3
		c-6.7,16.3,5.6,18.2-3.7,47.4c-9.3,29.2-14,19.4-20,32.8c-2.8,6.5-3,12.1-2.3,17.5h421.8c1.3-6.4,2.6-13.1,3.8-19.9V604.9z"/>
</g>
</svg>
