<?xml version="1.0" encoding="utf-8"?>
<!-- Generator: Adobe Illustrator 23.0.3, SVG Export Plug-In . SVG Version: 6.00 Build 0)  -->
<svg version="1.1" id="Layer_1" xmlns="http://www.w3.org/2000/svg" xmlns:xlink="http://www.w3.org/1999/xlink" x="0px" y="0px"
	 viewBox="0 0 800 900" style="enable-background:new 0 0 800 900;" xml:space="preserve">
<style type="text/css">
	.st0{fill:#F0F5E5;}
	.st1{fill:#C3D1D8;}
	.st2{fill:#599A9C;}
</style>
<g>
	<g>
		<path class="st0" d="M801.6,745.1V639.8c-110.9-7.3-221.9-14.2-332.9-20.4c-4.6-7.7-6.5-11.4-9.6-18.2
			c-9.5,5.1-19.4,9.9-28.3,15.7c-5.5,3.6-10.2,9.5-10.2,9.5s-3.9,4.8-15,11c-12.5,6.9-27.1,10.2-38.8,18.1
			c-16.1,10.8-24.8,24.5-44,32.4c-16.1,6.7-25.8,11.2-35.7,25.2c-9.5,13.5-23.3,15-36.3,22.6c-11.2,6.5-15.6,23.7-24.1,33.2
			c-9.1,10.3-20.7,8.6-30.6,16.1c-12.5,9.4-12,28.8-23.9,39.6c-12.9,11.7-34,3.2-45.8,17.2c-8.8,10.4-6.1,25-13,36.1
			c-7,11.2-19.9,13.2-28.3,22.6h683.8c3-13.5,6.2-26.9,9.4-40.3c4.2-17.4,10.6-34.2,16.2-51.2c2.8-8.3,8.9-20,6.5-28.6
			C798.4,770.5,799.2,758,801.6,745.1z"/>
	</g>
	<g>
		<path class="st1" d="M801.6,641.2c-113.2-10.8-226.5-21.1-339.9-29.6c-1.3-4.3-1.9-6.4-2.6-10.3c0,0-12.6,10.1-17.8,14
			c-7.6,5.8-16,11.1-24.7,15.2c-9,4.3-11.1,10.7-19.3,15.1c-15.2,8.1-31,16.3-43.5,28.4c-9.1,8.7-22.6,10.1-32,18.4
			c-9.5,8.3-8.6,11-17.9,20c-8.2,8.1-19.3,9.5-24.4,21.1c-5.1,11.7-7.8,16.8-18.7,24c-11,7.3-23.9,9.4-33.1,19.7
			c-9.6,10.7-9.2,24.9-17.9,35.3c-7.8,9.3-20.7,10.3-28.7,20.1c-7.9,9.5-3.8,25.1-9.2,36.1c-5.8,11.8-21.1,11.1-24.1,21
			c-1,3.4-0.9,7.1-0.3,10.8h601.4c1.3-3.4,2.5-6.9,3.7-10.5c8.1-26,19.6-51.1,27.7-77.2c7-22.6,14.5-45.4,21.5-67.9V641.2z"/>
	</g>
	<g>
		<path class="st2" d="M457.7,600.7c0.8,0,1.6,0,2.4,0c0.5-0.4,0.9-0.7,1.4-1.1C460,600.1,459.2,600.3,457.7,600.7z"/>
		<path class="st2" d="M801.6,606.9c-113.8-2.6-227.7-4.7-341.5-6.2c-12.5,9.7-25.5,19.2-38.9,27.3c-9.3,5.6-16.9,15.6-25.8,21.4
			c-9.2,6-21.1,8.5-29.4,16.7c-11.1,10.9-15.6,25.4-28.3,34.7c-11.2,8.2-26.1,16.6-32.7,28.6c-7.1,12.9-7.6,28.7-17.7,40.5
			c-11.7,13.6-32.9,17-43.9,33c-10,14.7-5.1,39.2-11.4,56.4c-3.7,10-7.3,17.7-13.1,26.3c-3.2,4.8-8.3,6.4-9.4,12.3
			c-0.2,0.8-0.2,1.7-0.3,2.5h591.9l0.5-180.9V606.9z"/>
	</g>
</g>
</svg>
