<?xml version="1.0" encoding="utf-8"?>
<!-- Generator: Adobe Illustrator 23.0.3, SVG Export Plug-In . SVG Version: 6.00 Build 0)  -->
<svg version="1.1" id="Layer_1" xmlns="http://www.w3.org/2000/svg" xmlns:xlink="http://www.w3.org/1999/xlink" x="0px" y="0px"
	 viewBox="0 0 800 900" style="enable-background:new 0 0 800 900;" xml:space="preserve">
<style type="text/css">
	.st0{fill:#F0F5E5;}
	.st1{fill:#C3D1D8;}
	.st2{fill:#599A9C;}
</style>
<g>
	<g>
		<path class="st0" d="M466.2,896c-1,1.4-1.7,2.9-2.3,4.4h337.7V637.1c-98.2-6.4-196.4-12.2-294.7-17.5
			c-16.1-6.8-32.3-13.3-48.6-19.5c3,5.2,6.2,13.1,9.1,17.1c2.9,4,10.3,10.1,10.3,10.1s5.7,4.9,7.5,11.5s-5.1,9.9-1.2,18.7
			c4.2,9.5,21.1,21.5,12.9,32.7c-7,9.6-0.6,16.7,4.4,25c10.1,16.5-1,12.6-1.9,22.2c-1.1,11.2,11.8,20.2,12.6,32.1
			c1.1,15.1-7.4,6.1-9.1,15.5c-2.3,12.4,11.1,25.9,7,37.9c-3.6,10.4-21.2,3.6-24.2,16.4c-2.6,11.3,3.6,23,0.1,34.5
			C482.7,884.6,472.3,887.1,466.2,896z"/>
	</g>
	<g>
		<path class="st1" d="M801.6,637.6c-104.7-9.9-209.6-18.8-314.5-26.2c-9.5-3.9-19.1-7.7-28.8-11.3c0,0,14.1,11,18.7,15.4
			c4.7,4.3,10.6,11.8,11.4,16.3c0.9,4.5,11.6,11.2,12.8,15.7c2.7,10.5,6.7,20.1,12.8,29c6,8.9-2.6,8.8,2.6,18.5
			c4.5,8.4,8,10.7,12.3,19.8c4.3,9-4.4,5.6,6.5,20.7c10.9,15.1,11.3,12.2,10.3,23.2s-8.2,3.7-5.5,19c2.1,11.8,11.3,21.8,11.9,33.8
			c0.6,11.3-7.3,6.4-8.3,19.1c-1,11.9,8,21.6,6.6,34.4c-2.2,19.8-11.3,8.9-12.5,20c-0.5,4.8,0.3,10.2,0.7,15.4h262.9V637.6z"/>
	</g>
	<g>
		<path class="st2" d="M801.6,605.8c-113.3-2.4-226.5-4.4-339.8-6c13.5,8.1,26.9,18.3,36.9,29.8c6.8,7.9,16.8,13.3,22.7,22.4
			c3.6,5.5-1.8,6.9,7.4,17.2c9.7,10.8,26.1,20.5,30.2,34.6c2.7,9.4,6.4,20,12.2,28c8.9,12.3,22.3,23.5,26.6,39.1
			c2.7,9.7-4.2,21.7-2.5,31.6c3.3,18.3,18.2,33.7,19.8,53.7c1.2,15-4.9,23.6-6.3,36.9c-0.3,2.4-0.3,4.9-0.1,7.4h192.9V605.8z"/>
	</g>
</g>
</svg>
