<?xml version="1.0" encoding="utf-8"?>
<!-- Generator: Adobe Illustrator 23.0.3, SVG Export Plug-In . SVG Version: 6.00 Build 0)  -->
<svg version="1.1" id="Layer_1" xmlns="http://www.w3.org/2000/svg" xmlns:xlink="http://www.w3.org/1999/xlink" x="0px" y="0px"
	 viewBox="0 0 800 900" style="enable-background:new 0 0 800 900;" xml:space="preserve">
<style type="text/css">
	.st0{fill:#9A9A9A;}
	.st1{fill:#FFFFFF;}
	.st2{fill:#D2E8FA;}
	.st3{fill:#6E6E6E;}
</style>
<g>
	<path class="st0" d="M76.4,505.8c0,0,9.5-9,25.6-6.9s21.3,5,34,12l-3.8,5.4l3,6.3C135.2,522.6,91.4,530.7,76.4,505.8z"/>
	<path class="st1" d="M74.9,505.2c0,0,9.5-9,25.6-6.9s21.3,5,34,12l-3.8,5.4l3,6.3C133.6,521.9,89.8,530.1,74.9,505.2z"/>
	<g>
		<path class="st2" d="M75,505.1c-0.1,0.1-0.1,0.1-0.1,0.1c14.9,24.9,58.7,16.8,58.7,16.8l-0.7-1.5C129.2,521,90.2,527.1,75,505.1z"
			/>
	</g>
	<g>
		<path class="st3" d="M113.1,524.4c0,0.7-0.3,1.1-0.8,1c-0.5-0.1-0.9-0.7-0.9-1.4l-0.5-8.4c0-0.7,0.3-1.1,0.8-1
			c0.5,0.1,0.9,0.7,0.9,1.4L113.1,524.4z"/>
	</g>
	<g>
		<path class="st3" d="M88,518.5c0,0.7-0.3,1.1-0.8,1s-0.9-0.7-0.9-1.4l-0.5-8.4c0-0.7,0.3-1.1,0.8-1c0.5,0.1,0.9,0.7,0.9,1.4
			L88,518.5z"/>
	</g>
</g>
</svg>
