<?xml version="1.0" encoding="utf-8"?>
<!-- Generator: Adobe Illustrator 23.0.3, SVG Export Plug-In . SVG Version: 6.00 Build 0)  -->
<svg version="1.1" id="Layer_1" xmlns="http://www.w3.org/2000/svg" xmlns:xlink="http://www.w3.org/1999/xlink" x="0px" y="0px"
	 viewBox="0 0 800 900" style="enable-background:new 0 0 800 900;" xml:space="preserve">
<style type="text/css">
	.st0{fill:#739A36;}
	.st1{fill:#A2A2A2;}
	.st2{fill:#FFFFFF;}
	.st3{fill:#D2E8FA;}
</style>
<g>
	<polygon class="st0" points="134,549.1 118.8,557.5 118.4,555.5 107.8,555.3 113.9,551.9 121.4,553 121.7,548.1 121.9,546.5 
		133.7,547.9 	"/>
	<path class="st1" d="M131.2,514.4l-9.9,34.5c1.4,0.7,2.9,1.1,4.5,1c0.1,0,0.1,0,0.1,0.1c2.8,0.9,5.7,0.4,8.1-0.9l0.5,0.1
		c0.2-7.1,0.7-28.9,0.7-31.8c0-3.5-2.5-13.2-2.5-13.2L131.2,514.4z"/>
	<g>
		<path class="st2" d="M130.1,498.8c0,0,7.9,10.4,4.2,26.2c-3.7,15.8-7.2,20.7-15.6,32.5l-4.9-4.4l-6.6,2.3
			C107.3,555.4,103.8,511,130.1,498.8z"/>
		<g>
			<path class="st3" d="M130.1,498.8c-26.3,12.2-22.9,56.6-22.9,56.6l2-0.7C105.3,511.5,130.1,498.8,130.1,498.8z"/>
		</g>
	</g>
</g>
</svg>
