<?xml version="1.0" encoding="utf-8"?>
<!-- Generator: Adobe Illustrator 23.0.3, SVG Export Plug-In . SVG Version: 6.00 Build 0)  -->
<svg version="1.1" id="Layer_1" xmlns="http://www.w3.org/2000/svg" xmlns:xlink="http://www.w3.org/1999/xlink" x="0px" y="0px"
	 viewBox="0 0 800 900" style="enable-background:new 0 0 800 900;" xml:space="preserve">
<style type="text/css">
	.st0{fill:#6E6E6E;}
</style>
<g>
	<g>
		<path class="st0" d="M113.1,524.4c0,0.7-0.3,1.1-0.8,1c-0.5-0.1-0.9-0.7-0.9-1.4l-0.5-8.4c0-0.7,0.3-1.1,0.8-1
			c0.5,0.1,0.9,0.7,0.9,1.4L113.1,524.4z"/>
	</g>
	<g>
		<path class="st0" d="M88,518.5c0,0.7-0.3,1.1-0.8,1s-0.9-0.7-0.9-1.4l-0.5-8.4c0-0.7,0.3-1.1,0.8-1c0.5,0.1,0.9,0.7,0.9,1.4
			L88,518.5z"/>
	</g>
</g>
</svg>
