<?xml version="1.0" encoding="utf-8"?>
<!-- Generator: Adobe Illustrator 23.0.3, SVG Export Plug-In . SVG Version: 6.00 Build 0)  -->
<svg version="1.1" id="Layer_1" xmlns="http://www.w3.org/2000/svg" xmlns:xlink="http://www.w3.org/1999/xlink" x="0px" y="0px"
	 viewBox="0 0 800 900" style="enable-background:new 0 0 800 900;" xml:space="preserve">
<style type="text/css">
	.st0{fill:#8BB53C;}
	.st1{fill:#77AD40;}
</style>
<g>
	<path class="st0" d="M363.6,444.2l2.5-5.7l6.8-2.5c0,0,5.4-5.2,6.9-5.2c1.6,0,0.1-14.7,1.3-15.1c1.2-0.4,1-10.2,1-10.2l-2.4-4.3
		l-0.8-5.9l1.6-6.3l2-4l-2.8-7.5l-5.1-6.3c0,0-2.8-4-2.8-5.5c0-1.6,2-7.9,2-7.9l0.4-9.1l-5.5-4.3c0,0-3.2-7.1-4-8.3
		s-5.9-5.9-5.9-5.9s-2.4-3.6-3.2-4.7c-0.8-1.2-4.3-12.2-4.3-12.2l-1.2-3.6l-2.8,16.6l-1.2,6.3l-5.1,4l-2,5.1l-2,9.5l-5.9,6.3
		l-2.8,5.1l-4.3,2.4l0.4,7.5l-6.5,13.4l1.4,7.5c0,0-2.2,10.9-1.4,12.1c0.8,1.2,2.9,11.4,2.9,11.4l-1.8,10l6.1,13.5l5.7,1.5l3.6,4.6
		l4.3-3.6l4.3,1.4l4.7,4.3l5.9-3.2L363.6,444.2z"/>
	<path class="st1" d="M379.7,401.1l-0.8-5.9l1.6-6.3l2-4l-2.8-7.5l-5.1-6.3c0,0-2.8-4-2.8-5.5c0-1.6,2-7.9,2-7.9l0.4-9.1l-5.5-4.3
		c0,0-3.2-7.1-4-8.3c-0.8-1.2-5.9-5.9-5.9-5.9s-2.4-3.6-3.2-4.7c-0.4-0.6-1.5-3.6-2.5-6.5c0.4,3,0.7,5.8,0.7,8.7
		c0.4,2.2,1,4.3,1.7,6.4c4.3,3.4,7.1,8.2,8.3,13.5c2.8,5.8,3.5,12.7,2,19c0.4,2.5,0.5,5,0.4,7.6c3.7,5.7,5.1,13,3.9,19.8
		c0.1,2.1,0.1,4.2,0.2,6.3c1.9,3.9,2.7,8.7,2,14.3c-2.4,19.9-24.3,30.3-38.7,22.3c-3.4,0.6-6.8,0.6-10.1-0.1l1.7,3.7l5.7,1.5
		l3.6,4.6l4.3-3.6l4.3,1.4l4.7,4.3l5.9-3.2l10-1.1l2.5-5.7l6.8-2.5c0,0,5.4-5.2,6.9-5.2c1.6,0,0.1-14.7,1.3-15.1
		c1.2-0.4,1-10.2,1-10.2L379.7,401.1z"/>
</g>
</svg>
