<?xml version="1.0" encoding="utf-8"?>
<!-- Generator: Adobe Illustrator 23.0.3, SVG Export Plug-In . SVG Version: 6.00 Build 0)  -->
<svg version="1.1" id="Layer_1" xmlns="http://www.w3.org/2000/svg" xmlns:xlink="http://www.w3.org/1999/xlink" x="0px" y="0px"
	 viewBox="0 0 800 900" style="enable-background:new 0 0 800 900;" xml:space="preserve">
<style type="text/css">
	.st0{fill:#8BB53C;}
	.st1{fill:#77AD40;}
</style>
<g>
	<g>
		<path class="st0" d="M374.1,437.2c1.5-3.1-2-4.6-0.7-7.7c2.6-2.5,3.8-8,6.3-10.4c0,0,1.1-8.6,2.5-9.4c1.4-0.8-4.3-16.6-3.3-17.6
			c1-1-0.9-11.7-0.9-11.7c-1.2-1.4,2.4-2.1,1-3.5c-1-2.4-1.5-3.5-2.6-5.8c-0.4-2.9-4.8-8.6-5.4-11.5c0-2-4.3-3-4.3-4.9
			c-2.4-2.4,0.6-3.6-2.1-5.8c-3.2-1.4,3.6-2,0.3-3.2c0,0-4.9-2.1-6-3.5c-1.1-1.4-4-3.3-4-3.3c-2.6-3-8.3-8.6-11.2-11.3
			c-3.4-0.1-0.9-0.2-4.3-0.3c0,0-9.2-3-11.1-3.3c-1.8-0.3-10.9-4.6-10.9-4.6s-5.7-0.6-7.6-0.8c-1.9-0.2-17.1-2.7-17.1-2.7
			c-2-0.2-3-0.3-5.1-0.5c6.7,2.4,9.9,3.9,15.8,7.7c2.2,1.4,3.3,2.2,5.4,3.8c-0.2,1.9,0.9,2.7,1.7,4.3c1.9,1.4,1.6-0.4,5,4.6
			c2.8,2.8,4.1,4.4,6.5,7.5c0,3,0,8.8-0.1,12c1.1,4.1,0.2,4.7,1.4,9.8c-0.8,1.7,3,2.5,2.1,4.2c2.2,2.5-5.2,3.8-3.2,6.4
			c1.1,6.2,1.4,9.4,1.7,16c1.9,2.7-1.4,4,0.2,6.8c-2,9.5-4.9,14.4-5.9,13.5c1,0.9,4.4,11.1,4.4,11.1c-0.5,10.1,3.6,7.9,3,12.1
			c1.9,4.9,11.1,7.4,12,12.3c1.8-0.4,2.7-0.7,4.6-1.1c0.8,1.4,1.1,2.1,1.8,3.5c1.9-2.5,2.9-3.7,4.7-6.2c1.4-0.2,2-0.4,3.4-0.6
			c1.2,1,1.7,1.6,2.7,2.6c2.5-2.6,8-4,10.4-6.6C368.7,436.7,370.5,439.7,374.1,437.2z"/>
		<path class="st1" d="M379.1,376.9c-1-2.4-1.5-3.5-2.6-5.8c-0.4-2.9-4.8-8.6-5.4-11.5c0-2-4.3-3-4.3-4.9c-2.4-2.4,0.6-3.6-2.1-5.8
			c-3.2-1.4,3.6-2,0.3-3.2c0,0-4.9-2.1-6-3.5c-1.1-1.4-4-3.3-4-3.3c-2.6-3-8.3-8.6-11.2-11.3c-3.4-0.1-0.9-0.2-4.3-0.3
			c0,0-9.2-3-11.1-3.3c-1.8-0.3-10.9-4.6-10.9-4.6s-5.7-0.6-7.6-0.8c-1-0.1-5.1-0.9-9.1-1.6c3.6,0.9,6.9,2.1,9.8,3.5
			c2.6,0.9,5.3,1.7,7.9,2.6c7-0.2,14,5.6,19.6,8.7c7.4,2.7,13.3,7.7,16.3,13.9c2,2,3.7,4.1,5.1,6.5c-6-3,8.7,20.4,8.9,21.6
			c0.9,2.1,1.6,4.3,2.4,6.4c-8.7-9.9,4.9,21,4.8,14.6c0.6,32.5-7.6,48.3-29.8,44.4c-3,2.4-6,4-8.8,4.9c0.3,1.3,0.5,2,0.7,3.4
			c1.8-0.4,2.7-0.7,4.6-1.1c0.8,1.4,1.1,2.1,1.8,3.5c1.9-2.5,2.9-3.7,4.7-6.2c1.4-0.2,2-0.4,3.4-0.6c1.2,1,1.7,1.6,2.7,2.6
			c2.5-2.6,8,0.3,10.4-2.4c6.8-4.7,6.9-4.7,9-6.2c1.5-3.1,2.2-4.6,3.5-7.7c2.6-2.5-0.4-8,2.1-10.4c0,0,1.1-8.6,2.5-9.4
			c1.4-0.8-4.3-16.6-3.3-17.6c1-1-0.9-11.7-0.9-11.7C376.8,379,380.4,378.3,379.1,376.9z"/>
	</g>
</g>
</svg>
