<?xml version="1.0" encoding="utf-8"?>
<!-- Generator: Adobe Illustrator 23.0.3, SVG Export Plug-In . SVG Version: 6.00 Build 0)  -->
<svg version="1.1" id="Layer_1" xmlns="http://www.w3.org/2000/svg" xmlns:xlink="http://www.w3.org/1999/xlink" x="0px" y="0px"
	 viewBox="0 0 800 900" style="enable-background:new 0 0 800 900;" xml:space="preserve">
<style type="text/css">
	.st0{fill:#8BB53C;}
	.st1{fill:#77AD40;}
</style>
<g>
	<g>
		<path class="st0" d="M379.8,436.8c0.9-3.1-2.9-4.6-2.2-7.7c2.1-2.5,2.2-8,4.2-10.4c0,0-0.6-8.6,0.6-9.4c1.2-0.8-7.6-16.6-6.8-17.6
			c0.8-1-7.5-11.7-7.5-11.7c-1.5-1.4,1.9-2.1,0.3-3.5c-1.4-2.4-2.2-3.5-3.8-5.8c-1-2.9-15-8.6-16.2-11.5c-0.4-2-4.9,1.3-5.3-0.7
			c-2.9-2.4-4.4-7.8-7.5-10.1c-3.5-1.4,3.2-2-0.4-3.2c0,0-5.4-2.1-6.7-3.5s-4.7-3.3-4.7-3.3c-3.2-3-14.2-8.6-17.7-11.3
			c-3.4-0.1-0.9-0.2-4.4-0.3c0,0-9.8-3-11.7-3.3c-1.9-0.3-11.9-4.6-11.9-4.6s-5.8-0.6-7.7-0.8c-2-0.2-17.6-2.7-17.6-2.7
			c-2.1-0.2-3.1-0.3-5.2-0.5c7.2,2.4,10.7,3.9,17.3,7.7c2.5,1.4,3.7,2.2,6.1,3.8c0.2,1.9,6.1,1.5,12.7,9c3.3,2.8,4.9,4.4,8,7.5
			c0.6,3,6,8.8,6.5,12c2,4.1,5.4,4.7,7.6,9.8c-0.5,1.7,3.5,2.5,3,4.2c2.7,2.5-0.2,3.8,2.3,6.4c2.3,6.2,7.5,9.4,9.2,16
			c2.4,2.7-0.6,4,1.6,6.8c-0.1,9.5-2,14.4-3.2,13.5c1.1,0.9,6.6,11.1,6.6,11.1c1.5,10.1,5.2,7.9,5.4,12.1
			c2.9,4.9,12.6,7.4,14.5,12.3c1.7-0.4,2.6-0.7,4.3-1.1c1.1,1.4,1.6,2.1,2.5,3.5c1.4-2.5,2.1-3.7,3.5-6.2c1.3-0.2,2-0.4,3.3-0.6
			c1.4,1,2,1.6,3.3,2.6c2-2.6,7.2-4,9.1-6.6C374.3,436.3,376.7,439.3,379.8,436.8z"/>
		<path class="st1" d="M368.3,376.5c-1.4-2.4-2.2-3.5-3.8-5.8c-1-2.9-15-8.6-16.2-11.5c-0.4-2-2.8-2.7-3.2-4.7
			c-2.9-2.4-6.5-3.8-9.6-6.1c-3.5-1.4,3.2-2-0.4-3.2c0,0-5.4-2.1-6.7-3.5c-1.4-1.4-4.7-3.3-4.7-3.3c-3.2-3-14.2-8.6-17.7-11.3
			c-3.4-0.1-0.9-0.2-4.4-0.3c0,0-9.8-3-11.7-3.3c-1.9-0.3-11.9-4.6-11.9-4.6s-5.8-0.6-7.7-0.8c-1-0.1-5.3-0.9-9.4-1.6
			c3.8,0.9,7.3,2.1,10.5,3.5c2.8,0.9,5.6,1.7,8.4,2.6c7-0.2,15.1,5.6,21.3,8.7c7.9,2.7,19.1,7.7,23.3,13.9c2.4,2,8.8,4.1,10.7,6.5
			c-6.6-3,21.2,20.4,21.7,21.6c1.3,2.1,2.5,4.3,3.7,6.4c-10.7-9.9,13.4,21,12,14.6c7.1,32.5,2.1,48.3-20.9,44.4
			c-2.6,2.4-5.2,4-7.8,4.9c0.6,1.3,0.9,2,1.4,3.4c1.7-0.4,2.6-0.7,4.3-1.1c1.1,1.4,1.6,2.1,2.5,3.5c1.4-2.5,2.1-3.7,3.5-6.2
			c1.3-0.2,2-0.4,3.3-0.6c1.4,1,2,1.6,3.3,2.6c2-2.6,8,0.3,9.9-2.4c5.8-4.7,5.9-4.7,7.7-6.2c0.9-3.1,1.3-4.6,2-7.7
			c2.1-2.5-2-8,0-10.4c0,0-0.6-8.6,0.6-9.4c1.2-0.8-7.6-16.6-6.8-17.6c0.8-1-7.5-11.7-7.5-11.7C366.5,378.6,369.9,377.9,368.3,376.5
			z"/>
	</g>
</g>
</svg>
