<svg width="30" height="30" xmlns="http://www.w3.org/2000/svg">
 <style type="text/css">.st0{fill:#0074BA;}</style>

 <g>
  <title>background</title>
  <rect fill="none" id="canvas_background" height="32" width="32" y="-1" x="-1"/>
 </g>
 <g>
  <title>Layer 1</title>
  <g id="svg_1">
   <path id="svg_2" d="m17.484806,6.558018c3.674118,0 7.157097,1.14683 10.57637,3.482979l-0.97694,3.100698l-0.169903,0.530943l0.169903,0.530943l0.97694,3.100698c-3.419273,2.336151 -6.881012,3.482975 -10.555134,3.482975c-2.27243,0 -4.587339,-0.445984 -7.09339,-1.337967l-0.91321,-0.339802l-0.764562,0.615902l-1.295504,1.04063l0.233619,-1.168068l0.254858,-1.210545l-1.040647,-0.637127c-2.251194,-1.401688 -3.86526,-3.058233 -4.736005,-4.077641c1.210547,-1.422926 3.780303,-4.013921 7.560605,-5.500553c2.739671,-1.083124 5.288187,-1.614067 7.772999,-1.614067m0,-1.741489c-3.100698,0 -5.946551,0.743321 -8.431351,1.741489c-5.712946,2.251205 -8.877361,6.732352 -9.153446,7.13586c0.21238,0.318562 2.293671,3.249371 6.031496,5.58551l-1.210547,5.904083l5.075806,-4.0564c2.31491,0.82827 4.884668,1.444164 7.688042,1.444164c3.865257,0 8.134037,-1.168079 12.615185,-4.544876l-1.359207,-4.311243l1.359207,-4.311246c-4.459923,-3.419273 -8.728687,-4.587342 -12.615185,-4.587342l0,0z" class="st0"/>
  </g>
 </g>
</svg>