<?xml version="1.0" standalone="no"?>
<!DOCTYPE svg PUBLIC "-//W3C//DTD SVG 20010904//EN"
 "http://www.w3.org/TR/2001/REC-SVG-20010904/DTD/svg10.dtd">
<svg version="1.0" xmlns="http://www.w3.org/2000/svg"
 width="145.000000pt" height="145.000000pt" viewBox="0 0 145.000000 145.000000"
 preserveAspectRatio="xMidYMid meet">
<metadata>
Created by potrace 1.11, written by Peter Selinger 2001-2013
</metadata>
<g transform="translate(0.000000,145.000000) scale(0.100000,-0.100000)"
fill="#000000" stroke="none">
<path d="M675 1194 c-234 -41 -459 -165 -603 -332 -39 -44 -52 -67 -47 -81 8
-27 157 -173 221 -217 37 -25 53 -43 49 -53 -2 -9 -9 -38 -15 -66 -18 -92 -30
-150 -34 -172 -4 -17 22 -1 114 73 l119 95 68 -20 c306 -92 605 -41 859 146
l31 23 -33 99 -32 99 31 102 32 103 -32 24 c-105 81 -271 154 -403 177 -99 17
-227 17 -325 0z m370 -94 c73 -18 234 -91 277 -124 16 -12 16 -18 -7 -91 -31
-96 -31 -95 0 -185 14 -40 25 -75 25 -76 0 -8 -144 -86 -200 -108 -113 -45
-182 -56 -325 -51 -127 3 -197 16 -310 58 l-40 14 -49 -41 c-46 -38 -49 -39
-43 -16 22 93 23 91 -54 140 -39 25 -100 74 -136 109 l-65 64 59 59 c217 220
578 324 868 248z"/>
</g>
</svg>
